<svg width="22" height="24" viewBox="0 0 22 24" fill="none" xmlns="http://www.w3.org/2000/svg">
<path fill-rule="evenodd" clip-rule="evenodd" d="M10.9254 0C6.28853 0 2.52958 3.75894 2.52958 8.39583V9.15861C2.52958 9.91361 2.3061 10.6517 1.88731 11.2799L0.642986 13.1464C-0.801202 15.3127 0.301315 18.2572 2.81312 18.9422C3.6317 19.1655 4.45719 19.3543 5.28747 19.5088L5.28952 19.5143C6.1226 21.7372 8.34919 23.2917 10.9253 23.2917C13.5015 23.2917 15.7281 21.7372 16.5612 19.5143L16.5632 19.5088C17.3935 19.3543 18.2191 19.1655 19.0377 18.9422C21.5495 18.2572 22.652 15.3127 21.2078 13.1464L19.9635 11.2799C19.5447 10.6517 19.3213 9.91361 19.3213 9.15861V8.39583C19.3213 3.75894 15.5623 0 10.9254 0ZM14.5832 19.8109C12.1533 20.1012 9.69735 20.1012 7.26749 19.8109C8.03769 20.9175 9.37731 21.6667 10.9253 21.6667C12.4734 21.6667 13.813 20.9175 14.5832 19.8109ZM4.15458 8.39583C4.15458 4.65641 7.18599 1.625 10.9254 1.625C14.6648 1.625 17.6963 4.65641 17.6963 8.39583V9.15861C17.6963 10.2344 18.0147 11.2862 18.6114 12.1813L19.8558 14.0478C20.6847 15.2912 20.0519 16.9813 18.6101 17.3745C13.5789 18.7467 8.27196 18.7467 3.24069 17.3745C1.79895 16.9813 1.16613 15.2912 1.99507 14.0478L3.23939 12.1813C3.83614 11.2862 4.15458 10.2344 4.15458 9.15861V8.39583Z" fill="white"/>
</svg>
