<svg width="27" height="27" viewBox="0 0 27 27" fill="none" xmlns="http://www.w3.org/2000/svg">
<path fill-rule="evenodd" clip-rule="evenodd" d="M13.3101 0.907166V2.56906H10.1307C10.1307 2.56906 7.86963 2.57457 7.23753 3.18864C7.23753 3.18864 6.5083 3.60713 6.4419 5.42302L6.38548 19.0872C6.38548 19.0872 6.38379 21.8984 7.11557 22.3351C7.11557 22.3351 7.57861 22.9203 8.98979 22.988H13.3099V24.7273L9.70015 24.6985C9.70015 24.6985 5.69273 24.9335 5.04748 21.9556C5.04748 21.9556 4.77025 20.6758 4.74883 19.657L4.75371 5.85106C4.75371 5.85106 4.55941 3.36639 6.07368 1.99784C6.07368 1.99784 7.09436 0.960618 9.75509 0.933892L13.3099 0.907166H13.3101Z" fill="white"/>
<path fill-rule="evenodd" clip-rule="evenodd" d="M13.3101 0.907166V2.56906H16.4894C16.4894 2.56906 18.7505 2.57457 19.3826 3.18864C19.3826 3.18864 20.1118 3.60713 20.1782 5.42302L20.2347 19.0872C20.2347 19.0872 20.2363 21.8984 19.5046 22.3351C19.5046 22.3351 19.0415 22.9203 17.6303 22.988H13.3103V24.7273L16.92 24.6985C16.92 24.6985 20.9274 24.9335 21.5727 21.9556C21.5727 21.9556 21.8499 20.6758 21.8713 19.657L21.8664 5.85106C21.8664 5.85106 22.0607 3.36639 20.5465 1.99784C20.5465 1.99784 19.5258 0.960618 16.865 0.933892L13.3103 0.907166H13.3101Z" fill="white"/>
<path fill-rule="evenodd" clip-rule="evenodd" d="M6.3136 3.84384V5.14684H5.92777C5.92777 5.14684 4.42729 5.21048 3.90783 5.67649C3.90783 5.67649 3.03436 6.15798 3.06214 7.28557V17.6803C3.06214 17.6803 2.96309 19.1186 3.56166 19.6555C3.56166 19.6555 3.92183 20.1996 5.04305 20.2819L6.3136 20.6363V21.9556L5.57397 21.9338C5.57397 21.9338 2.28009 22.1122 1.74981 19.8532C1.74981 19.8532 1.52179 18.8821 1.50439 18.1094L1.50842 7.6364C1.50842 7.6364 1.40025 5.68858 2.52974 4.69229C2.52974 4.69229 3.54597 3.53734 5.61915 3.63067L6.3136 3.84384Z" fill="white"/>
<path fill-rule="evenodd" clip-rule="evenodd" d="M20.2938 3.84384V5.14684H20.6797C20.6797 5.14684 22.1801 5.21048 22.6996 5.67649C22.6996 5.67649 23.5731 6.15798 23.5453 7.28557V17.6803C23.5453 17.6803 23.6443 19.1186 23.0458 19.6555C23.0458 19.6555 22.6856 20.1996 21.5644 20.2819L20.2938 20.6363V21.9556L21.0335 21.9338C21.0335 21.9338 24.3273 22.1122 24.8576 19.8532C24.8576 19.8532 25.0856 18.8821 25.103 18.1094L25.099 7.6364C25.099 7.6364 25.2072 5.68858 24.0777 4.69229C24.0777 4.69229 23.0615 3.53734 20.9883 3.63067L20.2938 3.84384Z" fill="white"/>
<path d="M14.768 19.4633H13.7818V17.4899C13.5041 17.4899 13.2539 17.4819 13.0054 17.4985C12.9678 17.5009 12.91 17.6172 12.9089 17.6817C12.9009 18.1926 12.9044 18.7035 12.9044 19.2146C12.9044 19.2908 12.9044 19.367 12.9044 19.459H11.7612V17.5062H10.926V19.4628H9.98563C9.98563 19.1459 9.98563 18.8399 9.98563 18.534C9.98563 18.2469 9.97864 17.9598 9.98843 17.6731C9.99368 17.5189 9.94438 17.4646 9.78619 17.4674C9.29642 17.4759 8.80629 17.4709 8.31652 17.47C8.24136 17.47 8.1662 17.4635 8.08142 17.4595V17.2183C8.25796 17.1991 8.43643 17.1818 8.61454 17.1601C9.21304 17.087 9.43189 16.8682 9.45041 16.2646C9.47034 15.6142 9.46247 14.9629 9.46317 14.312C9.4644 12.7371 9.46492 11.162 9.46195 9.5871C9.4616 9.37769 9.45286 9.16671 9.42629 8.95923C9.38312 8.62065 9.17668 8.41632 8.84685 8.35217C8.60056 8.30428 8.34938 8.28208 8.08527 8.24624V7.98685C8.6072 7.98685 9.12407 7.98807 9.64094 7.9865C10.0285 7.98528 9.98389 8.02408 9.98528 7.63446C9.98721 7.13857 9.98581 6.64268 9.98581 6.1328H10.9162V7.95172H11.7493V6.13H12.9044C12.9044 6.48134 12.9044 6.82219 12.9044 7.16287C12.9044 7.38678 12.9075 7.61087 12.9037 7.83478C12.9017 7.94123 12.9432 7.9879 13.051 7.9858C13.2118 7.98248 13.3739 7.97601 13.5336 7.98965C13.7201 8.00538 13.79 7.94997 13.7844 7.74825C13.7698 7.21723 13.7796 6.6855 13.7796 6.1363H14.768C14.768 6.47802 14.768 6.81922 14.768 7.16059C14.768 7.37751 14.7766 7.59496 14.7652 7.81136C14.7572 7.96465 14.8103 8.01674 14.9643 8.0267C15.6034 8.06848 16.2286 8.1786 16.8112 8.46247C17.9259 9.00555 18.3852 10.2564 17.8631 11.3282C17.6243 11.8185 17.2024 12.0943 16.7144 12.2847C16.5266 12.3579 16.3309 12.41 16.1005 12.4841C16.3553 12.5668 16.5784 12.6339 16.7979 12.7114C17.4627 12.946 18.0417 13.2933 18.3644 13.9566C18.8098 14.8722 18.5161 16.0666 17.7016 16.7012C17.0444 17.2132 16.2788 17.3974 15.4698 17.4546C15.2954 17.467 15.1199 17.4738 14.9453 17.4675C14.8056 17.4625 14.7643 17.5165 14.7657 17.6509C14.7712 18.1758 14.7678 18.7009 14.7678 19.2258C14.7678 19.3013 14.7678 19.377 14.7678 19.4632L14.768 19.4633ZM12.9206 12.9512C12.915 12.9998 12.9077 13.0335 12.9077 13.0674C12.9072 14.1718 12.9068 15.2763 12.9086 16.3807C12.9086 16.4497 12.9175 16.5212 12.9362 16.5876C12.9932 16.7916 13.0896 16.8411 13.2933 16.7799C14.2424 16.4948 14.6698 15.9348 14.6829 14.9346C14.6981 13.7858 14.0793 13.1304 12.9206 12.9512ZM12.9372 12.1419C13.7598 12.1172 14.3691 11.403 14.3842 10.4782C14.4003 9.4948 13.7498 8.79423 12.9372 8.67956V12.1421V12.1419ZM14.8942 12.1491C15.8836 12.0917 16.4868 11.4427 16.5315 10.6098C16.5852 9.61279 15.9636 8.79353 14.9956 8.66243C15.6027 9.13158 15.8496 9.7334 15.8416 10.4567C15.8334 11.1943 15.528 11.7587 14.8942 12.1492V12.1491ZM10.925 14.6967C10.925 15.2497 10.919 15.8028 10.9294 16.3557C10.9318 16.4827 10.9662 16.6217 11.0276 16.732C11.1122 16.8839 11.2192 16.8743 11.2699 16.7095C11.3286 16.5184 11.3744 16.3151 11.3765 16.1166C11.3875 15.0737 11.3777 14.0306 11.388 12.9876C11.3901 12.7652 11.2559 12.8107 11.1277 12.7989C10.9755 12.785 10.9185 12.8334 10.9211 12.9958C10.9302 13.5626 10.9246 14.1297 10.925 14.6967ZM15.3399 13.0517C15.9954 13.5014 16.3233 14.0973 16.3344 14.8425C16.3452 15.585 16.058 16.2132 15.4789 16.7278C16.4086 16.5518 16.9218 15.7514 16.839 14.6638C16.772 13.7846 16.1554 13.1714 15.3399 13.0515V13.0517ZM11.3574 12.2162C11.3681 12.183 11.38 12.1636 11.3798 12.1443C11.3777 11.1438 11.3805 10.1433 11.3653 9.14312C11.3628 8.98283 11.2861 8.82097 11.2277 8.66593C11.2104 8.61978 11.1333 8.56192 11.0923 8.56804C11.0449 8.57503 10.9865 8.64006 10.9697 8.69197C10.94 8.78304 10.9267 8.8832 10.9266 8.97951C10.9238 10.001 10.9245 11.0227 10.9253 12.0442C10.9253 12.098 10.9346 12.1519 10.9405 12.216H11.3574V12.2162Z" fill="white"/>
</svg>
