<svg width="27" height="27" viewBox="0 0 27 27" fill="none" xmlns="http://www.w3.org/2000/svg">
<path d="M9.17426 25.2374H4.69254C2.46278 25.2374 1.38672 24.2057 1.38672 22.0758V4.54828C1.38672 2.41836 2.47387 1.38667 4.69254 1.38667H9.17426C11.404 1.38667 12.4801 2.41836 12.4801 4.54828V22.0758C12.4801 24.2057 11.3929 25.2374 9.17426 25.2374ZM4.69254 3.05068C3.28368 3.05068 3.05072 3.42785 3.05072 4.54828V22.0758C3.05072 23.1962 3.28368 23.5734 4.69254 23.5734H9.17426C10.5831 23.5734 10.8161 23.1962 10.8161 22.0758V4.54828C10.8161 3.42785 10.5831 3.05068 9.17426 3.05068H4.69254Z" fill="white"/>
<path d="M21.9316 15.2534H17.4499C15.2201 15.2534 14.144 14.2217 14.144 12.0918V4.54828C14.144 2.41836 15.2312 1.38667 17.4499 1.38667H21.9316C24.1614 1.38667 25.2374 2.41836 25.2374 4.54828V12.0918C25.2374 14.2217 24.1503 15.2534 21.9316 15.2534ZM17.4499 3.05068C16.041 3.05068 15.808 3.42785 15.808 4.54828V12.0918C15.808 13.2122 16.041 13.5894 17.4499 13.5894H21.9316C23.3404 13.5894 23.5734 13.2122 23.5734 12.0918V4.54828C23.5734 3.42785 23.3404 3.05068 21.9316 3.05068H17.4499Z" fill="white"/>
<path d="M21.9316 25.2374H17.4499C15.2201 25.2374 14.144 24.2057 14.144 22.0758V20.079C14.144 17.9491 15.2312 16.9174 17.4499 16.9174H21.9316C24.1614 16.9174 25.2374 17.9491 25.2374 20.079V22.0758C25.2374 24.2057 24.1503 25.2374 21.9316 25.2374ZM17.4499 18.5814C16.041 18.5814 15.808 18.9586 15.808 20.079V22.0758C15.808 23.1962 16.041 23.5734 17.4499 23.5734H21.9316C23.3404 23.5734 23.5734 23.1962 23.5734 22.0758V20.079C23.5734 18.9586 23.3404 18.5814 21.9316 18.5814H17.4499Z" fill="white"/>
</svg>
