<svg width="256" height="237" viewBox="0 0 256 237" fill="none" xmlns="http://www.w3.org/2000/svg">
<path d="M155.035 110.938L155.399 112.11L164.591 141.689C165.114 143.377 165.164 145.14 164.782 146.803C164.401 148.466 163.587 150.031 162.38 151.322L141.211 173.933L140.372 174.828C138.559 176.766 135.328 176.025 134.54 173.49L124.987 142.752C124.461 141.06 124.41 139.294 124.792 137.627C125.175 135.96 125.991 134.391 127.202 133.099L149.202 109.602C151.015 107.665 154.246 108.406 155.035 110.941L155.035 110.938Z" fill="#C40808"/>
<path d="M168.541 147.666L202.113 155.37C205.133 156.063 206.266 159.768 204.154 162.033C204.154 162.035 204.151 162.036 204.149 162.038L182.942 184.689C180.545 187.248 176.969 188.34 173.55 187.556L143.193 180.589C140.21 179.865 139.103 176.185 141.211 173.934L162.38 151.324L164.706 148.838C165.685 147.793 167.145 147.347 168.541 147.667L168.541 147.666Z" fill="#C40808"/>
<path d="M160.085 106.986L190.442 113.953C193.86 114.737 196.603 117.28 197.644 120.628L206.852 150.259C206.852 150.259 206.854 150.263 206.855 150.266C207.768 153.225 205.133 156.065 202.113 155.372L168.541 147.667C167.145 147.347 166.026 146.309 165.601 144.941L164.591 141.69L163.087 136.849L155.399 112.111C154.484 109.167 157.086 106.338 160.084 106.987L160.085 106.986Z" fill="#C40808"/>
<path d="M155.035 110.938L155.399 112.11L155.958 113.905C155.958 113.905 146.906 115.13 133.494 126.379L149.204 109.6C151.017 107.663 154.248 108.404 155.036 110.939L155.035 110.938Z" fill="#690000"/>
<path d="M202.113 155.37C205.133 156.063 206.266 159.768 204.154 162.033C204.154 162.035 204.151 162.036 204.149 162.038L189.079 178.132C189.408 177.761 200.227 165.484 202.112 155.37L202.113 155.37Z" fill="#690000"/>
<path d="M160.085 106.986L190.442 113.953C193.86 114.737 196.603 117.28 197.644 120.628L206.852 150.259C206.852 150.259 206.854 150.263 206.855 150.266C207.768 153.225 205.133 156.065 202.113 155.372C203.332 148.835 197.914 136.942 193.815 129.161C191.317 124.42 186.879 121.003 181.655 119.804L155.958 113.907L155.399 112.111C154.484 109.167 157.086 106.338 160.084 106.987L160.085 106.986Z" fill="#690000"/>
<path d="M128.731 140.865L133.511 156.908C133.661 157.414 134.28 157.604 134.689 157.268C134.874 157.117 134.974 156.886 134.959 156.648C134.792 154.118 133.907 139.538 135.114 131.637C135.233 130.859 134.247 130.425 133.753 131.037L129.682 136.069C128.595 137.413 128.24 139.208 128.733 140.865L128.731 140.865Z" fill="#690000"/>
<path d="M147.769 171.015C148.214 170.54 149.009 170.841 149.032 171.491C149.223 177.052 157.742 179.504 159.633 180.385C159.732 180.431 159.818 180.501 159.883 180.585C159.949 180.669 159.995 180.769 160.015 180.878C160.104 181.357 159.677 181.774 159.2 181.67L144.39 178.449C143.076 178.163 142.575 176.553 143.495 175.572L147.771 171.015L147.769 171.015Z" fill="#690000"/>
<path d="M164.206 182.059C164.319 181.566 164.011 181.076 163.519 180.963C163.027 180.85 162.536 181.157 162.424 181.65C162.311 182.142 162.618 182.632 163.11 182.745C163.602 182.858 164.093 182.551 164.206 182.059Z" fill="#690000"/>
<path d="M135.985 160.198C135.803 159.606 135.264 159.246 134.781 159.394C134.298 159.542 134.055 160.143 134.237 160.735C134.419 161.328 134.957 161.688 135.44 161.539C135.923 161.391 136.167 160.791 135.985 160.198Z" fill="#690000"/>
<path d="M160.459 105.601C160.451 105.599 160.443 105.597 160.435 105.595L158.983 105.262C155.082 104.367 150.959 105.626 148.225 108.546L126.156 132.117C123.389 135.072 122.417 139.31 123.618 143.175L133.201 174.011C134.388 177.832 137.55 180.763 141.45 181.658L142.905 181.992C142.911 181.993 142.918 181.995 142.925 181.997L173.273 188.961C177.146 189.833 181.231 188.587 183.956 185.7L183.982 185.673C183.984 185.671 183.986 185.67 183.988 185.667L206.057 162.096C207.44 160.618 208.375 158.821 208.814 156.908C209.253 154.996 209.195 152.971 208.595 151.037L199.012 120.202C199.012 120.202 199.01 120.197 199.009 120.194L198.999 120.159C197.805 116.373 194.673 113.47 190.807 112.566L160.459 105.601ZM126.355 142.325C125.907 140.883 125.864 139.373 126.191 137.946C126.519 136.52 127.216 135.179 128.248 134.077L150.248 110.58C150.747 110.046 151.47 109.826 152.183 109.99C152.896 110.154 153.447 110.664 153.664 111.36L160.804 134.335L163.223 142.116C164.113 144.992 163.39 148.142 161.335 150.342L142.314 170.658L139.326 173.849C138.826 174.383 138.103 174.603 137.392 174.44C136.68 174.276 136.125 173.762 135.909 173.065L126.355 142.325ZM173.871 186.159L143.558 179.202C142.648 178.99 141.942 178.331 141.67 177.438C141.396 176.541 141.615 175.597 142.256 174.913L146.692 170.175L163.418 152.311C163.418 152.311 163.424 152.305 163.425 152.302L165.752 149.817C166.379 149.147 167.325 148.859 168.221 149.064L201.792 156.769C202.706 156.979 203.415 157.639 203.688 158.536C203.961 159.432 203.743 160.377 203.102 161.061L181.888 183.716C179.848 185.891 176.776 186.828 173.869 186.161L173.871 186.159ZM196.274 121.046L204.544 147.658L205.486 150.685C205.764 151.58 205.549 152.525 204.913 153.213C204.276 153.9 203.349 154.186 202.436 153.977L168.864 146.272C167.969 146.066 167.245 145.394 166.971 144.518L165.961 141.267C165.961 141.267 165.958 141.259 165.958 141.255L163.563 133.549L156.769 111.688C156.491 110.792 156.705 109.848 157.342 109.161C157.977 108.476 158.897 108.191 159.808 108.396L190.123 115.353C193.03 116.02 195.386 118.203 196.274 121.05L196.274 121.046Z" fill="#010101"/>
<path d="M161.46 174.159C163.17 172.321 162.583 170.371 160.149 169.805C157.714 169.24 154.354 170.271 152.645 172.111C150.934 173.949 151.521 175.899 153.955 176.465C156.39 177.031 159.75 175.999 161.46 174.159Z" fill="#DBD4B7"/>
<path d="M175.979 158.75C177.69 156.911 177.103 154.961 174.668 154.396C172.234 153.83 168.874 154.861 167.164 156.701C165.454 158.541 166.041 160.49 168.475 161.055C170.909 161.621 174.268 160.589 175.979 158.75Z" fill="#DBD4B7"/>
<path d="M180.225 179.996C181.935 178.157 181.349 176.207 178.914 175.642C176.48 175.076 173.12 176.107 171.41 177.947C169.7 179.786 170.287 181.736 172.721 182.301C175.155 182.867 178.516 181.836 180.225 179.996Z" fill="#DBD4B7"/>
<path d="M195.225 163.996C196.935 162.157 196.349 160.207 193.914 159.642C191.48 159.076 188.12 160.107 186.41 161.947C184.7 163.787 185.287 165.736 187.721 166.301C190.155 166.867 193.514 165.835 195.225 163.996Z" fill="#DBD4B7"/>
<path d="M168.818 166.482C170.528 164.644 169.942 162.694 167.507 162.128C165.073 161.563 161.712 162.594 160.003 164.434C158.293 166.272 158.879 168.222 161.314 168.788C163.748 169.354 167.108 168.322 168.818 166.482Z" fill="#DBD4B7"/>
<path d="M188.225 171.996C189.935 170.157 189.349 168.207 186.914 167.642C184.48 167.076 181.12 168.107 179.41 169.947C177.7 171.786 178.287 173.736 180.721 174.301C183.155 174.867 186.516 173.836 188.225 171.996Z" fill="#DBD4B7"/>
<path d="M164.894 118.735C165.632 121.135 168.206 123.53 170.642 124.082C173.08 124.634 174.458 123.135 173.72 120.735C172.983 118.335 170.41 115.94 167.973 115.388C165.535 114.836 164.157 116.335 164.894 118.735Z" fill="#DBD4B7"/>
<path d="M188.704 140.88C189.442 143.28 192.016 145.675 194.452 146.227C196.889 146.78 198.268 145.28 197.53 142.88C196.793 140.479 194.218 138.085 191.782 137.533C189.345 136.981 187.967 138.479 188.704 140.88Z" fill="#DBD4B7"/>
<path d="M146.166 146.597C147.877 144.758 148.663 141.332 147.922 138.945C147.182 136.559 145.194 136.114 143.485 137.954C141.774 139.793 140.988 143.218 141.729 145.605C142.47 147.992 144.456 148.436 146.166 146.597Z" fill="#DBD4B7"/>
<path d="M160.042 109.406L158.596 109.607L122.084 114.694C120 114.981 117.92 114.7 116.041 113.931C114.161 113.162 112.48 111.903 111.197 110.238L88.7277 81.0115L87.8379 79.854C85.9125 77.35 87.4068 73.6991 90.5359 73.2621L128.479 67.9754C130.568 67.6844 132.652 67.9655 134.536 68.7365C136.42 69.5075 138.105 70.7691 139.388 72.4401L162.737 102.813C164.662 105.317 163.168 108.968 160.039 109.405L160.042 109.406Z" fill="#C40808"/>
<path d="M114.302 118.179L98.7733 156.12C97.3766 159.532 92.8071 160.148 90.5551 157.231C90.5521 157.23 90.5518 157.226 90.5494 157.223L68.0414 127.946C65.4982 124.636 64.9059 120.225 66.487 116.362L80.5285 82.0545C81.9547 78.691 86.4902 78.1017 88.7262 81.0108L111.195 110.237L113.665 113.449C114.704 114.8 114.946 116.601 114.3 118.179L114.302 118.179Z" fill="#C40808"/>
<path d="M163.71 116.099L149.668 150.407C148.087 154.27 144.572 157 140.438 157.576L103.862 162.672C103.862 162.672 103.856 162.673 103.853 162.673C100.201 163.175 97.3751 159.532 98.7718 156.119L114.3 118.179C114.946 116.601 116.381 115.487 118.069 115.252L122.082 114.693L128.058 113.861L158.595 109.607C162.228 109.1 165.049 112.702 163.708 116.098L163.71 116.099Z" fill="#C40808"/>
<path d="M160.042 109.406L158.596 109.607L156.38 109.917C156.38 109.917 156.689 99.0499 146.066 81.127L162.739 102.815C164.665 105.319 163.171 108.97 160.041 109.407L160.042 109.406Z" fill="#690000"/>
<path d="M98.7733 156.12C97.3765 159.532 92.807 160.148 90.555 157.231C90.552 157.23 90.5517 157.226 90.5493 157.223L74.5573 136.419C74.9299 136.876 87.2594 151.953 98.7739 156.118L98.7733 156.12Z" fill="#690000"/>
<path d="M163.71 116.099L149.668 150.407C148.087 154.27 144.572 157 140.438 157.576L103.862 162.672C103.862 162.672 103.856 162.673 103.853 162.673C100.201 163.175 97.3751 159.532 98.7718 156.119C106.214 158.812 121.227 154.745 131.155 151.433C137.205 149.414 142.076 144.861 144.492 138.958L156.378 109.916L158.595 109.607C162.228 109.1 165.049 112.702 163.708 116.098L163.71 116.099Z" fill="#690000"/>
<path d="M129.973 72.7376L110.209 75.2542C109.585 75.3335 109.243 76.0238 109.558 76.5689C109.7 76.8148 109.952 76.9766 110.235 77.0053C113.239 77.298 130.532 79.0724 139.578 82.0148C140.468 82.3049 141.169 81.2298 140.546 80.5321L135.422 74.78C134.053 73.244 132.014 72.4802 129.972 72.7391L129.973 72.7376Z" fill="#690000"/>
<path d="M90.8892 89.2771C91.3603 89.8914 90.8536 90.766 90.0862 90.6679C83.5182 89.8197 78.9939 99.351 77.5952 101.401C77.521 101.509 77.4233 101.596 77.3117 101.657C77.2001 101.718 77.0741 101.753 76.942 101.755C76.3616 101.767 75.9553 101.185 76.169 100.646L82.8103 83.8739C83.4001 82.3852 85.3873 82.1076 86.362 83.3778L90.8886 89.2786L90.8892 89.2771Z" fill="#690000"/>
<path d="M74.7465 106.449C75.3028 106.677 75.9382 106.41 76.1659 105.854C76.3935 105.298 76.1272 104.662 75.5709 104.435C75.0147 104.207 74.3793 104.473 74.1516 105.03C73.924 105.586 74.1903 106.221 74.7465 106.449Z" fill="#690000"/>
<path d="M105.867 77.5245C106.598 77.4252 107.125 76.8618 107.044 76.2663C106.963 75.6708 106.305 75.2686 105.574 75.3679C104.843 75.4673 104.316 76.0306 104.397 76.6262C104.478 77.2217 105.136 77.6239 105.867 77.5245Z" fill="#690000"/>
<path d="M165.264 116.806C165.267 116.797 165.271 116.788 165.275 116.779L165.947 115.138C167.751 110.73 167.068 105.644 164.166 101.869L140.743 71.401C137.806 67.5818 133.018 65.622 128.246 66.2864L90.1827 71.5894C85.4657 72.246 81.4132 75.3935 79.6092 79.8012L78.9362 81.4454C78.9331 81.4529 78.93 81.4605 78.9269 81.4681L64.8897 115.765C63.1182 120.146 63.7938 125.184 66.6582 128.942L66.6844 128.977C66.6868 128.98 66.6877 128.982 66.6901 128.985L90.1131 159.453C91.5822 161.363 93.5124 162.808 95.6738 163.693C97.8352 164.578 100.225 164.9 102.611 164.568L140.675 159.265C140.675 159.265 140.681 159.264 140.684 159.264L140.727 159.259C145.404 158.587 149.419 155.468 151.227 151.103L165.264 116.806ZM128.716 69.6644C130.496 69.4172 132.278 69.6578 133.891 70.3177C135.503 70.9776 136.942 72.0555 138.038 73.4797L161.387 103.852C161.918 104.542 162.036 105.434 161.707 106.239C161.377 107.044 160.671 107.593 159.812 107.714L131.451 111.666L121.846 113.004C118.296 113.494 114.737 112.037 112.549 109.199L92.3605 82.9393L89.1899 78.8136C88.6594 78.1237 88.5409 77.2322 88.8699 76.4284C89.1989 75.6245 89.9106 75.0711 90.7704 74.9519L128.716 69.6644ZM68.066 117.009L82.0871 82.7509C82.511 81.7237 83.4217 81.0216 84.5234 80.8739C85.6287 80.726 86.6959 81.1646 87.3748 82.0498L92.0829 88.1736L109.835 111.265C109.835 111.265 109.841 111.273 109.844 111.276L112.313 114.488C112.979 115.354 113.135 116.521 112.721 117.532L97.1929 155.473C96.7701 156.506 95.8582 157.211 94.7513 157.358C93.646 157.506 92.5788 157.068 91.8999 156.182L69.3868 126.896C67.2262 124.079 66.719 120.291 68.0636 117.006L68.066 117.009ZM140.213 155.887L107.362 160.464L103.625 160.985C102.521 161.138 101.452 160.704 100.767 159.824C100.083 158.944 99.9259 157.799 100.348 156.768L115.876 118.827C116.29 117.816 117.22 117.094 118.302 116.942L122.315 116.384C122.315 116.384 122.324 116.382 122.329 116.383L131.841 115.057L158.827 111.297C159.933 111.144 161 111.578 161.685 112.458C162.367 113.336 162.523 114.471 162.107 115.502L148.085 149.762C146.74 153.048 143.722 155.393 140.207 155.887L140.213 155.887Z" fill="#010101"/>
<path d="M84.5536 104.748C86.3824 107.112 88.7859 106.799 89.9202 104.049C91.0545 101.3 90.4917 97.1539 88.6607 94.7913C86.8319 92.4277 84.4284 92.7403 83.2941 95.4901C82.1598 98.24 82.7226 102.386 84.5536 104.748Z" fill="#DBD4B7"/>
<path d="M98.2742 122.475C100.103 124.838 102.506 124.526 103.641 121.776C104.775 119.026 104.212 114.88 102.381 112.518C100.551 110.154 98.149 110.467 97.0147 113.217C95.8804 115.966 96.4439 120.111 98.2742 122.475Z" fill="#DBD4B7"/>
<path d="M76.0444 125.37C77.8732 127.734 80.2767 127.421 81.411 124.672C82.5453 121.922 81.9825 117.776 80.1515 115.413C78.3227 113.05 75.9192 113.362 74.7849 116.112C73.6506 118.862 74.2135 123.008 76.0444 125.37Z" fill="#DBD4B7"/>
<path d="M89.7649 143.097C91.5937 145.46 93.9972 145.148 95.1315 142.398C96.2658 139.648 95.7029 135.502 93.872 133.14C92.0416 130.776 89.6397 131.089 88.5054 133.839C87.3711 136.588 87.9345 140.733 89.7649 143.097Z" fill="#DBD4B7"/>
<path d="M87.3058 123.569C89.1346 125.933 91.5381 125.62 92.6724 122.87C93.8067 120.12 93.2439 115.975 91.4129 113.612C89.5841 111.249 87.1806 111.561 86.0463 114.311C84.912 117.061 85.4748 121.206 87.3058 123.569Z" fill="#DBD4B7"/>
<path d="M148.983 119.48C146.022 119.883 142.712 122.444 141.594 125.198C140.474 127.954 141.969 129.862 144.93 129.459C147.891 129.056 151.2 126.497 152.319 123.741C153.438 120.985 151.944 119.077 148.983 119.48Z" fill="#DBD4B7"/>
<path d="M118.379 143.168C115.418 143.571 112.109 146.132 110.99 148.887C109.871 151.643 111.366 153.551 114.327 153.148C117.289 152.745 120.597 150.184 121.716 147.429C122.835 144.673 121.342 142.766 118.379 143.168Z" fill="#DBD4B7"/>
<path d="M133.825 130.97C130.863 131.373 127.554 133.934 126.436 136.689C125.316 139.445 126.811 141.353 129.772 140.95C132.733 140.547 136.042 137.987 137.161 135.231C138.28 132.475 136.786 130.567 133.825 130.97Z" fill="#DBD4B7"/>
<path d="M119.876 92.1077C121.705 94.4712 125.577 96.0561 128.523 95.6468C131.469 95.2375 132.375 92.9892 130.544 90.6266C128.714 88.2625 124.843 86.6783 121.897 87.0875C118.951 87.4968 118.046 89.7436 119.876 92.1077Z" fill="#DBD4B7"/>
</svg>
