<svg width="50" height="48" viewBox="0 0 50 48" fill="none" xmlns="http://www.w3.org/2000/svg">
<rect x="5.21021" y="10.2921" width="38.25" height="38.25" rx="4.5" transform="rotate(-9.99999 5.21021 10.2921)" fill="black"/>
<rect y="6.64203" width="38.25" height="38.25" rx="4.5" transform="rotate(-9.99999 0 6.64203)" fill="white"/>
<g clip-path="url(#clip0_210_15688)">
<path d="M33.8608 15.6482C32.3864 14.5756 30.7549 13.6755 28.9969 12.9941C28.9649 12.9814 28.9287 12.9899 28.9055 13.0168C28.6012 13.3701 28.2483 13.84 27.9923 14.2136C26.0923 13.5257 24.1433 13.1331 22.1653 13.0399C22.0756 12.5872 21.9213 12.0246 21.7765 11.5808C21.7653 11.548 21.7353 11.5262 21.7011 11.5245C19.8175 11.4714 17.9648 11.6697 16.1889 12.0887C16.1736 12.0919 16.1595 12.0996 16.1489 12.1111C11.8502 16.3821 9.97512 21.015 9.46129 25.86C9.45861 25.8837 9.46719 25.9086 9.48242 25.9264C11.34 27.9665 13.256 29.3638 15.1989 30.4255C15.23 30.4423 15.2676 30.4373 15.2942 30.4142C15.9193 29.8435 16.4985 29.2255 17.0228 28.5586C17.0537 28.5196 17.0429 28.4638 17.0012 28.4375C16.361 28.0349 15.7655 27.5813 15.2039 27.0893C15.1596 27.0499 15.17 26.9772 15.2231 26.9522C15.3769 26.879 15.5316 26.8017 15.6803 26.7222C15.7073 26.7077 15.7403 26.7101 15.765 26.7277C19.5526 29.4723 24.0685 30.382 28.5742 29.3078C28.604 29.3001 28.6354 29.3107 28.6556 29.3347C28.762 29.4656 28.8744 29.5977 28.9889 29.7249C29.0282 29.7686 29.0107 29.8399 28.9545 29.8591C28.2449 30.1023 27.5216 30.2829 26.7746 30.405C26.726 30.4131 26.6953 30.4617 26.7087 30.5096C26.9421 31.328 27.2369 32.122 27.5833 32.8885C27.5977 32.9209 27.6314 32.9403 27.6666 32.9368C29.879 32.7121 32.1865 32.1655 34.6891 31.0036C34.7111 30.9933 34.7274 30.9745 34.7341 30.9517C36.373 25.5608 35.9133 20.4987 33.8878 15.6852C33.8836 15.6697 33.8736 15.6571 33.8608 15.6482ZM18.4565 24.6588C17.2007 24.4058 16.3981 23.0444 16.6833 21.6285C16.9685 20.2125 18.2155 19.2639 19.4914 19.5209C20.7773 19.78 21.5678 21.1495 21.2645 22.5512C20.9793 23.9672 19.7324 24.9158 18.4565 24.6588ZM26.9257 26.3647C25.6699 26.1117 24.8673 24.7503 25.1525 23.3344C25.4378 21.9184 26.6847 20.9699 27.9606 21.2269C29.2465 21.4859 30.037 22.8554 29.7338 24.2572C29.4486 25.6731 28.2117 26.6237 26.9257 26.3647Z" fill="#FB6A14"/>
</g>
<defs>
<clipPath id="clip0_210_15688">
<rect width="26" height="26" fill="white" transform="translate(13.1729 6.88885) rotate(11.3884)"/>
</clipPath>
</defs>
</svg>
