<svg width="26" height="26" viewBox="0 0 26 26" fill="none" xmlns="http://www.w3.org/2000/svg">
<path d="M12.3498 24.6458H8.23317C3.47734 24.6458 1.354 22.5225 1.354 17.7667V13.65C1.354 8.89418 3.47734 6.77084 8.23317 6.77084H11.4832C11.9273 6.77084 12.2957 7.13918 12.2957 7.58334C12.2957 8.02751 11.9273 8.39584 11.4832 8.39584H8.23317C4.35484 8.39584 2.979 9.77168 2.979 13.65V17.7667C2.979 21.645 4.35484 23.0208 8.23317 23.0208H12.3498C16.2282 23.0208 17.604 21.645 17.604 17.7667V14.5167C17.604 14.0725 17.9723 13.7042 18.4165 13.7042C18.8607 13.7042 19.229 14.0725 19.229 14.5167V17.7667C19.229 22.5225 17.1057 24.6458 12.3498 24.6458Z" fill="white"/>
<path d="M18.4167 15.3292H14.9501C11.9059 15.3292 10.6709 14.0942 10.6709 11.05V7.58333C10.6709 7.25833 10.8659 6.955 11.1692 6.83583C11.4726 6.70583 11.8192 6.78166 12.0576 7.00916L18.9909 13.9425C19.2184 14.17 19.2942 14.5275 19.1642 14.8308C19.0451 15.1342 18.7417 15.3292 18.4167 15.3292ZM12.2959 9.54417V11.05C12.2959 13.2058 12.7942 13.7042 14.9501 13.7042H16.4559L12.2959 9.54417Z" fill="white"/>
<path d="M16.9002 2.97916H12.5669C12.1227 2.97916 11.7544 2.61082 11.7544 2.16666C11.7544 1.72249 12.1227 1.35416 12.5669 1.35416H16.9002C17.3444 1.35416 17.7127 1.72249 17.7127 2.16666C17.7127 2.61082 17.3444 2.97916 16.9002 2.97916Z" fill="white"/>
<path d="M7.5835 6.22916C7.13933 6.22916 6.771 5.86082 6.771 5.41666C6.771 3.17416 8.591 1.35416 10.8335 1.35416H13.6718C14.116 1.35416 14.4843 1.72249 14.4843 2.16666C14.4843 2.61082 14.116 2.97916 13.6718 2.97916H10.8335C9.49016 2.97916 8.396 4.07332 8.396 5.41666C8.396 5.86082 8.02766 6.22916 7.5835 6.22916Z" fill="white"/>
<path d="M20.7891 19.2292C20.3449 19.2292 19.9766 18.8608 19.9766 18.4167C19.9766 17.9725 20.3449 17.6042 20.7891 17.6042C22.0241 17.6042 23.0207 16.5967 23.0207 15.3725V8.66666C23.0207 8.22249 23.3891 7.85416 23.8332 7.85416C24.2774 7.85416 24.6457 8.22249 24.6457 8.66666V15.3725C24.6457 17.4958 22.9124 19.2292 20.7891 19.2292Z" fill="white"/>
<path d="M23.8335 9.47917H20.5835C17.7018 9.47917 16.521 8.29834 16.521 5.41668V2.16667C16.521 1.84167 16.716 1.53834 17.0193 1.41917C17.3227 1.28917 17.6693 1.36501 17.9077 1.59251L24.4077 8.09251C24.6352 8.32001 24.711 8.67751 24.581 8.98084C24.4618 9.28417 24.1585 9.47917 23.8335 9.47917ZM18.146 4.12751V5.41668C18.146 7.39918 18.601 7.85417 20.5835 7.85417H21.8727L18.146 4.12751Z" fill="white"/>
</svg>
