<svg width="27" height="27" viewBox="0 0 27 27" fill="none" xmlns="http://www.w3.org/2000/svg">
<path d="M14.4768 18.0269H12.3913C10.9159 18.0269 9.70667 16.7845 9.70667 15.2536C9.70667 14.7988 10.0838 14.4216 10.5387 14.4216C10.9935 14.4216 11.3707 14.7988 11.3707 15.2536C11.3707 15.8637 11.8255 16.3629 12.3913 16.3629H14.4768C14.9095 16.3629 15.2533 15.9747 15.2533 15.4976C15.2533 14.8986 15.0869 14.8099 14.7098 14.6767L11.3707 13.5119C10.6607 13.2679 9.70667 12.7465 9.70667 11.1158C9.70667 9.72913 10.8049 8.58652 12.1472 8.58652H14.2328C15.7082 8.58652 16.9174 9.82897 16.9174 11.3598C16.9174 11.8147 16.5402 12.1918 16.0853 12.1918C15.6305 12.1918 15.2533 11.8147 15.2533 11.3598C15.2533 10.7497 14.7985 10.2505 14.2328 10.2505H12.1472C11.7146 10.2505 11.3707 10.6388 11.3707 11.1158C11.3707 11.7148 11.5371 11.8036 11.9142 11.9367L15.2533 13.1015C15.9633 13.3455 16.9174 13.8669 16.9174 15.4976C16.9174 16.8954 15.8191 18.0269 14.4768 18.0269Z" fill="white"/>
<path d="M13.312 19.136C12.8572 19.136 12.48 18.7589 12.48 18.304V8.32001C12.48 7.86518 12.8572 7.48801 13.312 7.48801C13.7668 7.48801 14.144 7.86518 14.144 8.32001V18.304C14.144 18.7589 13.7668 19.136 13.312 19.136Z" fill="white"/>
<path d="M13.3121 25.2374C6.73372 25.2374 1.38672 19.8904 1.38672 13.312C1.38672 6.73366 6.73372 1.38666 13.3121 1.38666C13.7669 1.38666 14.1441 1.76383 14.1441 2.21866C14.1441 2.67349 13.7669 3.05066 13.3121 3.05066C7.65447 3.05066 3.05072 7.65441 3.05072 13.312C3.05072 18.9696 7.65447 23.5734 13.3121 23.5734C18.9697 23.5734 23.5734 18.9696 23.5734 13.312C23.5734 12.8572 23.9506 12.48 24.4055 12.48C24.8603 12.48 25.2375 12.8572 25.2375 13.312C25.2375 19.8904 19.8905 25.2374 13.3121 25.2374Z" fill="white"/>
<path d="M23.2961 8.59735H18.8587C18.4039 8.59735 18.0267 8.22018 18.0267 7.76535V3.328C18.0267 2.87318 18.4039 2.496 18.8587 2.496C19.3136 2.496 19.6907 2.87318 19.6907 3.328V6.93335H23.2961C23.7509 6.93335 24.1281 7.31052 24.1281 7.76535C24.1281 8.22018 23.7509 8.59735 23.2961 8.59735Z" fill="white"/>
<path d="M18.8582 8.59784C18.6474 8.59784 18.4366 8.52018 18.2702 8.35378C17.9485 8.03208 17.9485 7.49959 18.2702 7.17789L23.8169 1.6312C24.1386 1.3095 24.6711 1.3095 24.9928 1.6312C25.3145 1.95291 25.3145 2.48539 24.9928 2.8071L19.4461 8.35378C19.2797 8.52018 19.0689 8.59784 18.8582 8.59784Z" fill="white"/>
</svg>
