<svg width="29" height="26" viewBox="0 0 29 26" fill="none" xmlns="http://www.w3.org/2000/svg">
<path d="M26.1935 14.7416C25.9289 14.8777 25.7327 14.9691 25.5461 15.0767L16.4918 20.2979C16.2176 20.4559 15.9377 20.6045 15.6559 20.7492C15.2161 20.9739 14.7733 20.9862 14.3392 20.7378C12.3322 19.5915 10.3259 18.4439 8.32015 17.295C7.53754 16.8466 6.75779 16.3925 5.97518 15.9421C5.09641 15.4375 4.73748 14.5064 5.04976 13.5372C5.19067 13.1002 5.66575 12.9393 6.15036 13.2087C7.32618 13.8637 8.48962 14.5416 9.65687 15.2081C11.0441 16.0031 12.4484 16.7704 13.8108 17.6064C14.6353 18.1129 15.3522 18.1024 16.191 17.6064C19.6747 15.5651 23.1878 13.5715 26.6877 11.5578C27.8083 10.9133 28.747 11.4359 28.7489 12.7136C28.7489 14.157 28.7289 15.6013 28.7489 17.0446C28.7641 18.2966 28.2862 19.2449 27.1808 19.8752C24.0986 21.6308 21.0203 23.3931 17.9457 25.162C15.932 26.3207 13.9403 26.2541 11.9476 25.1088C9.31221 23.595 6.6283 22.1573 4.04531 20.5644C-1.41867 17.1912 -1.33012 9.1024 4.20527 5.7406C7.16814 3.94117 10.2215 2.29121 13.211 0.534619C14.4668 -0.204194 15.6207 -0.163266 16.8689 0.570787C20.1174 2.47495 23.4001 4.32964 26.6667 6.20809C27.7968 6.85836 27.8092 8.01702 26.6819 8.66062C23.303 10.6 19.9222 12.5261 16.5394 14.4683C15.4922 15.07 14.4706 15.0491 13.4328 14.4492C11.1021 13.103 8.74192 11.8063 6.44075 10.4134C4.71653 9.36613 2.77239 10.4029 2.52866 12.1852C2.36776 13.3591 2.35348 14.5654 2.79239 15.7079C3.19702 16.7628 3.87489 17.6121 4.85553 18.1776C7.67559 19.8152 10.5137 21.4223 13.329 23.0675C14.4887 23.7453 15.5912 23.7101 16.7375 23.0437C19.708 21.3166 22.6867 19.6029 25.6737 17.9024C26.0888 17.6644 26.3059 17.3683 26.2792 16.8742C26.2507 16.3525 26.2792 15.8269 26.2697 15.3042C26.2543 15.1154 26.2289 14.9276 26.1935 14.7416Z" fill="white"/>
</svg>
