<svg width="27" height="27" viewBox="0 0 27 27" fill="none" xmlns="http://www.w3.org/2000/svg">
<path d="M16.9048 24.7049H16.7606C11.8351 24.7049 9.46107 22.7636 9.05062 18.415C9.00624 17.9602 9.33904 17.5497 9.80496 17.5053C10.2487 17.461 10.6702 17.8048 10.7146 18.2597C11.0363 21.743 12.6782 23.0409 16.7717 23.0409H16.9159C21.4309 23.0409 23.0283 21.4435 23.0283 16.9285V9.69558C23.0283 5.18058 21.4309 3.58313 16.9159 3.58313H16.7717C12.656 3.58313 11.0141 4.90324 10.7146 8.45312C10.6592 8.90795 10.2709 9.25184 9.80496 9.20747C9.33904 9.17419 9.00624 8.76374 9.03952 8.30891C9.4167 3.89375 11.8018 1.91913 16.7606 1.91913H16.9048C22.3516 1.91913 24.6812 4.24874 24.6812 9.69558V16.9285C24.6812 22.3753 22.3516 24.7049 16.9048 24.7049Z" fill="white"/>
<path d="M16.6391 14.144H4.01486C3.56004 14.144 3.18286 13.7668 3.18286 13.312C3.18286 12.8572 3.56004 12.48 4.01486 12.48H16.6391C17.0939 12.48 17.4711 12.8572 17.4711 13.312C17.4711 13.7668 17.0939 14.144 16.6391 14.144Z" fill="white"/>
<path d="M6.48899 17.86C6.27821 17.86 6.06744 17.7823 5.90104 17.6159L2.18476 13.8996C1.86305 13.5779 1.86305 13.0455 2.18476 12.7237L5.90104 9.00752C6.22275 8.68581 6.75523 8.68581 7.07694 9.00752C7.39864 9.32922 7.39864 9.86171 7.07694 10.1834L3.94861 13.3117L7.07694 16.44C7.39864 16.7617 7.39864 17.2942 7.07694 17.6159C6.92163 17.7823 6.69976 17.86 6.48899 17.86Z" fill="white"/>
</svg>
