<svg width="70" height="89" viewBox="0 0 70 89" fill="none" xmlns="http://www.w3.org/2000/svg">
<path d="M44.6217 88.9775H38.0406V75.8082C36.187 75.8082 34.5178 75.7545 32.8591 75.8653C32.6083 75.8816 32.2223 76.6573 32.2153 77.0878C32.1616 80.4973 32.1849 83.9069 32.1849 87.3176C32.1849 87.8262 32.1849 88.3347 32.1849 88.9483H24.5563V75.9166H18.9829V88.974H12.7074C12.7074 86.8592 12.7074 84.8167 12.7074 82.7754C12.7074 80.8601 12.6607 78.9436 12.7261 77.0306C12.7611 76.0018 12.4321 75.639 11.3765 75.6577C8.10805 75.7148 4.8373 75.681 1.56888 75.6752C1.06731 75.6752 0.565732 75.632 0 75.6052V73.9955C1.17812 73.8672 2.36908 73.7517 3.5577 73.607C7.55165 73.1195 9.01206 71.659 9.1357 67.6313C9.26868 63.2909 9.21619 58.9447 9.22085 54.6008C9.22902 44.091 9.23252 33.58 9.21269 23.0702C9.21036 21.6728 9.15203 20.2649 8.97473 18.8803C8.68662 16.6209 7.30903 15.2573 5.10792 14.8292C3.46438 14.5096 1.78818 14.3614 0.0256622 14.1223V12.3913C3.50871 12.3913 6.95793 12.3995 10.4071 12.389C12.9932 12.3808 12.6957 12.6397 12.7051 10.0397C12.7179 6.73047 12.7086 3.42122 12.7086 0.0186638H18.9176V12.1568H24.477V0H32.1849C32.1849 2.34458 32.1849 4.61918 32.1849 6.8926C32.1849 8.38684 32.2059 9.88224 32.1803 11.3765C32.1674 12.0868 32.4439 12.3983 33.1636 12.3843C34.2367 12.3621 35.318 12.319 36.3842 12.41C37.6288 12.5149 38.0954 12.1452 38.058 10.7991C37.9601 7.25537 38.0254 3.70701 38.0254 0.0419926H44.6217C44.6217 2.32242 44.6217 4.59935 44.6217 6.87744C44.6217 8.32502 44.6789 9.77609 44.603 11.2202C44.5494 12.2431 44.904 12.5908 45.9316 12.6572C50.1962 12.936 54.3686 13.6709 58.2564 15.5652C65.6949 19.1894 68.7604 27.5366 65.2762 34.6893C63.6828 37.9612 60.867 39.8019 57.6102 41.0722C56.3574 41.5609 55.051 41.9085 53.5136 42.4031C55.2143 42.9548 56.7027 43.4028 58.1678 43.9195C62.6038 45.4849 66.4683 47.8026 68.6216 52.2294C71.5937 58.3393 69.6341 66.3097 64.1984 70.5451C59.8125 73.9616 54.7034 75.1911 49.305 75.5725C48.1409 75.6553 46.9698 75.7008 45.8045 75.6588C44.8725 75.625 44.5972 75.9855 44.6065 76.8825C44.6427 80.3853 44.6205 83.8894 44.6205 87.3923C44.6205 87.8962 44.6205 88.4012 44.6205 88.9763L44.6217 88.9775ZM32.2934 45.5199C32.2561 45.8442 32.2071 46.0693 32.2071 46.2956C32.2036 53.6653 32.2013 61.0361 32.2129 68.4058C32.2129 68.8666 32.2724 69.3436 32.3972 69.7869C32.7775 71.1481 33.4214 71.4783 34.7803 71.07C41.1142 69.1675 43.9662 65.4302 44.0536 58.7557C44.1551 51.0897 40.0259 46.7155 32.2934 45.5199ZM32.4042 40.1192C37.8936 39.9547 41.9598 35.1886 42.0602 29.0168C42.1675 22.4543 37.8271 17.7792 32.4042 17.014V40.1203V40.1192ZM45.4639 40.167C52.066 39.7844 56.0915 35.4533 56.3901 29.8952C56.7482 23.2417 52.6003 17.7745 46.1404 16.8997C50.1915 20.0304 51.8398 24.0465 51.7861 28.8734C51.7313 33.7958 49.6935 37.5623 45.4639 40.1682V40.167ZM18.9759 57.1681C18.9759 60.8588 18.9363 64.5495 19.0051 68.239C19.0214 69.087 19.2512 70.0144 19.6607 70.7504C20.2252 71.764 20.9391 71.6999 21.2774 70.5999C21.6693 69.325 21.9749 67.9684 21.9889 66.6433C22.0624 59.6842 21.9971 52.7228 22.0659 45.7625C22.0799 44.2788 21.1841 44.5821 20.329 44.5039C19.3131 44.4106 18.9328 44.7337 18.9503 45.8173C19.0109 49.6002 18.9736 53.3842 18.9759 57.1681ZM48.4384 46.1906C52.8126 49.1919 55.0009 53.1684 55.0743 58.141C55.1467 63.0961 53.2302 67.2883 49.3657 70.7224C55.5701 69.5478 58.9948 64.2066 58.4419 56.9488C57.9952 51.0816 53.8799 46.9896 48.4384 46.1894V46.1906ZM21.8618 40.6149C21.9329 40.3933 22.0122 40.2638 22.0111 40.1355C21.9971 33.4587 22.0157 26.7819 21.9143 20.1074C21.8979 19.0378 21.3859 17.9576 20.9963 16.923C20.8808 16.615 20.3664 16.2289 20.0922 16.2698C19.7761 16.3164 19.3865 16.7503 19.2746 17.0968C19.0763 17.7045 18.9876 18.3729 18.9864 19.0156C18.9678 25.8324 18.9724 32.6503 18.9783 39.4671C18.9783 39.8264 19.0401 40.1857 19.0798 40.6138H21.8618V40.6149Z" fill="white"/>
</svg>
