<svg width="1446" height="160" viewBox="0 0 1446 160" fill="none" xmlns="http://www.w3.org/2000/svg">
<g clip-path="url(#clip0_361_729)">
<rect width="1446" height="160" rx="20.76" fill="black" fill-opacity="0.5"/>
<path d="M-85.5698 124.947C29.9581 98.9171 66.1185 126.476 181.646 100.446C297.174 74.4161 261.014 46.8569 376.509 20.8343C492.003 -5.18835 528.197 22.3634 643.725 -3.66675C759.253 -29.6969 723.092 -57.2561 838.62 -83.2862C954.148 -109.316 990.309 -81.7571 1105.87 -107.795C1221.43 -133.832 1185.24 -161.384 1300.77 -187.414" stroke="url(#paint0_linear_361_729)" stroke-opacity="0.25" stroke-width="7.19421" stroke-miterlimit="10"/>
<path d="M-230.285 14.6543C-114.757 -11.3758 -78.5969 16.1834 36.931 -9.84673C152.459 -35.8769 116.299 -63.4361 231.793 -89.4587C347.288 -115.481 383.482 -87.9296 499.01 -113.96C614.537 -139.99 578.377 -167.549 693.905 -193.579C809.433 -219.609 845.593 -192.05 961.154 -218.088C1076.72 -244.125 1040.52 -271.677 1156.05 -297.707" stroke="url(#paint1_linear_361_729)" stroke-opacity="0.25" stroke-width="7.19421" stroke-miterlimit="10"/>
<path d="M59.1453 235.24C174.673 209.21 210.907 236.825 326.435 210.795C441.963 184.765 405.729 157.15 521.224 131.127C636.718 105.104 672.986 132.712 788.514 106.682C904.041 80.6519 867.807 53.0367 983.335 27.0065C1098.86 0.976417 1135.1 28.5916 1250.66 2.55403C1366.22 -23.4836 1329.95 -51.0913 1445.48 -77.1214" stroke="url(#paint2_linear_361_729)" stroke-opacity="0.25" stroke-width="7.19421" stroke-miterlimit="10"/>
<path d="M258.175 386.928C373.703 360.898 409.863 388.457 525.391 362.427C640.919 336.397 604.758 308.837 720.253 282.815C835.748 256.792 871.941 284.344 987.469 258.314C1103 232.284 1066.84 204.724 1182.36 178.694C1297.89 152.664 1334.05 180.223 1449.61 154.186C1565.18 128.148 1528.98 100.596 1644.51 74.5663" stroke="url(#paint3_linear_361_729)" stroke-opacity="0.25" stroke-width="7.19421" stroke-miterlimit="10"/>
<path d="M-13.1755 180.122C102.352 154.091 138.513 181.651 254.041 155.621C369.569 129.59 333.408 102.031 448.903 76.0086C564.398 49.986 600.591 77.5377 716.119 51.5076C831.647 25.4774 795.487 -2.08175 911.015 -28.1119C1026.54 -54.142 1062.7 -26.5828 1178.26 -52.6204C1293.83 -78.658 1257.63 -106.21 1373.16 -132.24" stroke="url(#paint4_linear_361_729)" stroke-opacity="0.25" stroke-width="7.19421" stroke-miterlimit="10"/>
<path d="M-157.891 69.8286C-42.3629 43.7985 -6.20255 71.3577 109.325 45.3276C224.853 19.2975 188.693 -8.26175 304.188 -34.2844C419.682 -60.307 455.876 -32.7553 571.404 -58.7854C686.932 -84.8155 650.771 -112.375 766.299 -138.405C881.827 -164.435 917.988 -136.876 1033.55 -162.913C1149.11 -188.951 1112.92 -216.503 1228.44 -242.533" stroke="url(#paint5_linear_361_729)" stroke-opacity="0.25" stroke-width="7.19421" stroke-miterlimit="10"/>
<path d="M131.54 290.415C247.068 264.384 283.228 291.944 398.756 265.914C514.284 239.883 478.123 212.324 593.618 186.302C709.113 160.279 745.306 187.831 860.834 161.801C976.362 135.77 940.202 108.211 1055.73 82.1811C1171.26 56.151 1207.42 83.7102 1322.98 57.6726C1438.54 31.635 1402.35 4.08324 1517.87 -21.9469" stroke="url(#paint6_linear_361_729)" stroke-opacity="0.25" stroke-width="7.19421" stroke-miterlimit="10"/>
<path d="M330.495 442.046C446.023 416.016 482.257 443.631 597.785 417.601C713.313 391.571 677.079 363.956 792.574 337.933C908.068 311.91 944.335 339.518 1059.86 313.488C1175.39 287.458 1139.16 259.843 1254.69 233.812C1370.21 207.782 1406.45 235.398 1522.01 209.36C1637.57 183.322 1601.3 155.715 1716.83 129.684" stroke="url(#paint7_linear_361_729)" stroke-opacity="0.25" stroke-width="7.19421" stroke-miterlimit="10"/>
<path d="M-49.4094 152.506C66.1185 126.476 102.352 154.091 217.88 128.061C333.408 102.031 297.174 74.416 412.669 48.3934C528.164 22.3707 564.431 49.9785 679.959 23.9483C795.487 -2.08177 759.253 -29.697 874.781 -55.7271C990.309 -81.7572 1026.54 -54.142 1142.1 -80.1796C1257.66 -106.217 1221.4 -133.825 1336.93 -159.855" stroke="url(#paint8_linear_361_729)" stroke-opacity="0.25" stroke-width="7.19421" stroke-miterlimit="10"/>
<path d="M-194.124 42.2136C-78.5963 16.1835 -42.3624 43.7987 73.1655 17.7686C188.693 -8.26151 152.46 -35.8767 267.954 -61.8994C383.449 -87.922 419.716 -60.3143 535.244 -86.3444C650.772 -112.374 614.538 -139.99 730.066 -166.02C845.594 -192.05 881.828 -164.435 997.389 -190.472C1112.95 -216.51 1076.68 -244.118 1192.21 -270.148" stroke="url(#paint9_linear_361_729)" stroke-opacity="0.25" stroke-width="7.19421" stroke-miterlimit="10"/>
<path d="M95.3789 262.855C210.907 236.825 247.067 264.384 362.595 238.354C478.123 212.324 441.963 184.765 557.457 158.742C672.952 132.719 709.146 160.271 824.674 134.241C940.202 108.211 904.041 80.6516 1019.57 54.6215C1135.1 28.5914 1171.26 56.1506 1286.82 30.113C1402.38 4.07539 1366.19 -23.4763 1481.71 -49.5064" stroke="url(#paint10_linear_361_729)" stroke-opacity="0.25" stroke-width="7.19421" stroke-miterlimit="10"/>
<path d="M294.335 414.487C409.863 388.457 446.023 416.016 561.551 389.986C677.079 363.956 640.919 336.396 756.413 310.374C871.908 284.351 908.102 311.903 1023.63 285.873C1139.16 259.843 1103 232.283 1218.52 206.253C1334.05 180.223 1370.21 207.782 1485.77 181.745C1601.34 155.707 1565.14 128.156 1680.67 102.125" stroke="url(#paint11_linear_361_729)" stroke-opacity="0.25" stroke-width="7.19421" stroke-miterlimit="10"/>
<path d="M-266.445 -12.905C-150.917 -38.9351 -114.757 -11.3759 0.771177 -37.4061C116.299 -63.4362 80.1387 -90.9954 195.633 -117.018C311.128 -143.041 347.322 -115.489 462.85 -141.519C578.378 -167.549 542.217 -195.108 657.745 -221.138C773.273 -247.169 809.433 -219.609 924.995 -245.647C1040.56 -271.685 1004.36 -299.236 1119.89 -325.266" stroke="url(#paint12_linear_361_729)" stroke-opacity="0.25" stroke-width="7.19421" stroke-miterlimit="10"/>
<path d="M22.9852 207.681C138.513 181.651 174.673 209.21 290.201 183.18C405.729 157.15 369.569 129.59 485.064 103.568C600.558 77.545 636.752 105.097 752.28 79.0666C867.808 53.0365 831.647 25.4773 947.175 -0.55279C1062.7 -26.5829 1098.86 0.976289 1214.42 -25.0613C1329.99 -51.0989 1293.79 -78.6506 1409.32 -104.681" stroke="url(#paint13_linear_361_729)" stroke-opacity="0.25" stroke-width="7.19421" stroke-miterlimit="10"/>
<path d="M222.014 359.368C337.542 333.338 373.702 360.897 489.23 334.867C604.758 308.837 568.598 281.278 684.092 255.255C799.587 229.233 835.781 256.785 951.309 230.754C1066.84 204.724 1030.68 177.165 1146.2 151.135C1261.73 125.105 1297.89 152.664 1413.45 126.626C1529.01 100.589 1492.82 73.0371 1608.35 47.007" stroke="url(#paint14_linear_361_729)" stroke-opacity="0.25" stroke-width="7.19421" stroke-miterlimit="10"/>
<path d="M-121.73 97.3879C-6.20229 71.3578 29.9581 98.917 145.486 72.8869C261.014 46.8568 224.854 19.2976 340.348 -6.72505C455.843 -32.7477 492.037 -5.19596 607.565 -31.2261C723.092 -57.2562 686.932 -84.8154 802.46 -110.846C917.988 -136.876 954.148 -109.316 1069.71 -135.354C1185.27 -161.392 1149.08 -188.943 1264.6 -214.973" stroke="url(#paint15_linear_361_729)" stroke-opacity="0.25" stroke-width="7.19421" stroke-miterlimit="10"/>
<path d="M167.7 317.974C283.228 291.944 319.388 319.503 434.916 293.473C550.444 267.442 514.284 239.883 629.778 213.861C745.273 187.838 781.467 215.39 896.994 189.36C1012.52 163.329 976.362 135.77 1091.89 109.74C1207.42 83.7101 1243.58 111.269 1359.14 85.2316C1474.7 59.194 1438.51 31.6423 1554.03 5.6122" stroke="url(#paint16_linear_361_729)" stroke-opacity="0.25" stroke-width="7.19421" stroke-miterlimit="10"/>
<path d="M366.729 469.661C482.257 443.631 518.417 471.19 633.945 445.16C749.473 419.13 713.313 391.571 828.807 365.548C944.302 339.526 980.496 367.077 1096.02 341.047C1211.55 315.017 1175.39 287.458 1290.92 261.428C1406.45 235.398 1442.61 262.957 1558.17 236.919C1673.73 210.882 1637.54 183.33 1753.06 157.3" stroke="url(#paint17_linear_361_729)" stroke-opacity="0.25" stroke-width="7.19421" stroke-miterlimit="10"/>
<path d="M-67.4897 138.727C48.0382 112.696 84.2721 140.312 199.8 114.282C315.328 88.2514 279.094 60.6362 394.589 34.6136C510.083 8.59094 546.351 36.1987 661.878 10.1686C777.406 -15.8616 741.172 -43.4768 856.7 -69.5069C972.228 -95.537 1008.46 -67.9218 1124.02 -93.9594C1239.58 -119.997 1203.32 -147.605 1318.85 -173.635" stroke="url(#paint18_linear_361_729)" stroke-opacity="0.25" stroke-width="7.19421" stroke-miterlimit="10"/>
<path d="M-212.205 28.4338C-96.6772 2.40372 -60.5168 29.9629 55.0111 3.93281C170.539 -22.0973 134.379 -49.6565 249.873 -75.6792C365.368 -101.702 401.562 -74.1501 517.09 -100.18C632.618 -126.21 596.457 -153.769 711.985 -179.8C827.513 -205.83 863.673 -178.271 979.235 -204.308C1094.8 -230.346 1058.6 -257.897 1174.13 -283.928" stroke="url(#paint19_linear_361_729)" stroke-opacity="0.25" stroke-width="7.19421" stroke-miterlimit="10"/>
<path d="M77.2256 249.02C192.754 222.989 228.987 250.605 344.515 224.575C460.043 198.544 423.809 170.929 539.304 144.907C654.799 118.884 691.066 146.492 806.594 120.462C922.122 94.4314 885.888 66.8162 1001.42 40.7861C1116.94 14.756 1153.18 42.3712 1268.74 16.3336C1384.3 -9.70404 1348.03 -37.3118 1463.56 -63.3419" stroke="url(#paint20_linear_361_729)" stroke-opacity="0.25" stroke-width="7.19421" stroke-miterlimit="10"/>
<path d="M276.254 400.707C391.782 374.677 427.943 402.236 543.471 376.206C658.999 350.176 622.838 322.617 738.333 296.594C853.828 270.572 890.021 298.123 1005.55 272.093C1121.08 246.063 1084.92 218.504 1200.44 192.474C1315.97 166.444 1352.13 194.003 1467.69 167.965C1583.26 141.928 1547.06 114.376 1662.59 88.3458" stroke="url(#paint21_linear_361_729)" stroke-opacity="0.25" stroke-width="7.19421" stroke-miterlimit="10"/>
<path d="M-284.525 -26.6846C-168.997 -52.7147 -132.837 -25.1555 -17.3088 -51.1856C98.2191 -77.2157 62.0587 -104.775 177.553 -130.798C293.048 -156.82 329.242 -129.268 444.77 -155.299C560.298 -181.329 524.137 -208.888 639.665 -234.918C755.193 -260.948 791.353 -233.389 906.915 -259.427C1022.48 -285.464 986.282 -313.016 1101.81 -339.046" stroke="url(#paint22_linear_361_729)" stroke-opacity="0.25" stroke-width="7.19421" stroke-miterlimit="10"/>
<path d="M4.90479 193.901C120.433 167.871 156.593 195.43 272.121 169.4C387.649 143.37 351.489 115.811 466.983 89.7881C582.478 63.7655 618.672 91.3172 734.2 65.2871C849.727 39.257 813.567 11.6978 929.095 -14.3323C1044.62 -40.3625 1080.78 -12.8033 1196.34 -38.8409C1311.91 -64.8785 1275.71 -92.4302 1391.24 -118.46" stroke="url(#paint23_linear_361_729)" stroke-opacity="0.25" stroke-width="7.19421" stroke-miterlimit="10"/>
<path d="M203.86 345.533C319.388 319.503 355.622 347.118 471.15 321.088C586.678 295.058 550.444 267.442 665.939 241.42C781.434 215.397 817.701 243.005 933.229 216.975C1048.76 190.945 1012.52 163.329 1128.05 137.299C1243.58 111.269 1279.81 138.884 1395.37 112.847C1510.93 86.8091 1474.67 59.2014 1590.2 33.1713" stroke="url(#paint24_linear_361_729)" stroke-opacity="0.25" stroke-width="7.19421" stroke-miterlimit="10"/>
<path d="M-139.811 83.6084C-24.2826 57.5783 11.8778 85.1375 127.406 59.1074C242.934 33.0772 206.773 5.51804 322.268 -20.5046C437.763 -46.5272 473.956 -18.9755 589.484 -45.0056C705.012 -71.0357 668.852 -98.5949 784.38 -124.625C899.908 -150.655 936.068 -123.096 1051.63 -149.134C1167.19 -175.171 1131 -202.723 1246.52 -228.753" stroke="url(#paint25_linear_361_729)" stroke-opacity="0.25" stroke-width="7.19421" stroke-miterlimit="10"/>
<path d="M149.62 304.194C265.148 278.164 301.308 305.723 416.836 279.693C532.364 253.663 496.203 226.104 611.698 200.081C727.193 174.058 763.386 201.61 878.914 175.58C994.442 149.55 958.282 121.991 1073.81 95.9606C1189.34 69.9305 1225.5 97.4897 1341.06 71.4521C1456.62 45.4145 1420.43 17.8628 1535.95 -8.16734" stroke="url(#paint26_linear_361_729)" stroke-opacity="0.25" stroke-width="7.19421" stroke-miterlimit="10"/>
<path d="M348.649 455.882C464.177 429.852 500.337 457.411 615.865 431.381C731.393 405.351 695.233 377.791 810.728 351.769C926.222 325.746 962.416 353.298 1077.94 327.268C1193.47 301.238 1157.31 273.679 1272.84 247.648C1388.37 221.618 1424.53 249.177 1540.09 223.14C1655.65 197.102 1619.46 169.551 1734.98 143.52" stroke="url(#paint27_linear_361_729)" stroke-opacity="0.25" stroke-width="7.19421" stroke-miterlimit="10"/>
<path d="M-31.2556 166.342C84.2724 140.312 120.433 167.871 235.961 141.841C351.489 115.811 315.328 88.2517 430.823 62.2291C546.318 36.2064 582.511 63.7581 698.039 37.728C813.567 11.6979 777.407 -15.8613 892.935 -41.8914C1008.46 -67.9215 1044.62 -40.3623 1160.18 -66.3999C1275.75 -92.4376 1239.55 -119.989 1355.08 -146.019" stroke="url(#paint28_linear_361_729)" stroke-opacity="0.25" stroke-width="7.19421" stroke-miterlimit="10"/>
<path d="M-176.044 55.9932C-60.5163 29.963 -24.2824 57.5783 91.2456 31.5482C206.773 5.51803 170.54 -22.0972 286.034 -48.1198C401.529 -74.1425 437.796 -46.5347 553.324 -72.5648C668.852 -98.595 632.618 -126.21 748.146 -152.24C863.674 -178.27 899.908 -150.655 1015.47 -176.693C1131.03 -202.73 1094.76 -230.338 1210.29 -256.368" stroke="url(#paint29_linear_361_729)" stroke-opacity="0.25" stroke-width="7.19421" stroke-miterlimit="10"/>
<path d="M113.459 276.635C228.987 250.605 265.148 278.164 380.675 252.134C496.203 226.104 460.043 198.544 575.538 172.522C691.032 146.499 727.226 174.051 842.754 148.021C958.282 121.991 922.121 94.4314 1037.65 68.4013C1153.18 42.3712 1189.34 69.9304 1304.9 43.8928C1420.46 17.8552 1384.27 -9.69654 1499.79 -35.7267" stroke="url(#paint30_linear_361_729)" stroke-opacity="0.25" stroke-width="7.19421" stroke-miterlimit="10"/>
<path d="M312.415 428.266C427.943 402.236 464.177 429.851 579.705 403.821C695.232 377.791 658.999 350.176 774.493 324.153C889.988 298.131 926.255 325.738 1041.78 299.708C1157.31 273.678 1121.08 246.063 1236.6 220.033C1352.13 194.003 1388.37 221.618 1503.93 195.58C1619.49 169.543 1583.22 141.935 1698.75 115.905" stroke="url(#paint31_linear_361_729)" stroke-opacity="0.25" stroke-width="7.19421" stroke-miterlimit="10"/>
<path d="M-248.365 0.874756C-132.837 -25.1554 -96.6767 2.40384 18.8513 -23.6263C134.379 -49.6564 98.2188 -77.2156 213.714 -103.238C329.208 -129.261 365.402 -101.709 480.93 -127.739C596.458 -153.769 560.297 -181.329 675.825 -207.359C791.353 -233.389 827.514 -205.83 943.075 -231.867C1058.64 -257.905 1022.44 -285.457 1137.97 -311.487" stroke="url(#paint32_linear_361_729)" stroke-opacity="0.25" stroke-width="7.19421" stroke-miterlimit="10"/>
<path d="M41.0644 221.46C156.592 195.43 192.753 222.99 308.281 196.959C423.809 170.929 387.648 143.37 503.143 117.347C618.638 91.3248 654.831 118.877 770.359 92.8464C885.887 66.8163 849.727 39.2571 965.255 13.227C1080.78 -12.8031 1116.94 14.7561 1232.5 -11.2815C1348.07 -37.3191 1311.87 -64.8709 1427.4 -90.901" stroke="url(#paint33_linear_361_729)" stroke-opacity="0.25" stroke-width="7.19421" stroke-miterlimit="10"/>
<path d="M240.094 373.148C355.622 347.118 391.782 374.677 507.31 348.647C622.838 322.617 586.678 295.058 702.172 269.035C817.667 243.012 853.861 270.564 969.388 244.534C1084.92 218.504 1048.76 190.945 1164.28 164.914C1279.81 138.884 1315.97 166.444 1431.53 140.406C1547.09 114.368 1510.9 86.8166 1626.43 60.7865" stroke="url(#paint34_linear_361_729)" stroke-opacity="0.25" stroke-width="7.19421" stroke-miterlimit="10"/>
<path d="M-103.65 111.167C11.8775 85.1374 48.0379 112.697 163.566 86.6664C279.094 60.6363 242.933 33.0771 358.428 7.05449C473.923 -18.9681 510.116 8.58358 625.644 -17.4465C741.172 -43.4767 705.012 -71.0359 820.54 -97.066C936.068 -123.096 972.228 -95.5369 1087.79 -121.575C1203.35 -147.612 1167.16 -175.164 1282.68 -201.194" stroke="url(#paint35_linear_361_729)" stroke-opacity="0.25" stroke-width="7.19421" stroke-miterlimit="10"/>
<path d="M185.78 331.753C301.308 305.723 337.542 333.338 453.07 307.308C568.598 281.278 532.364 253.663 647.859 227.64C763.353 201.618 799.62 229.225 915.148 203.195C1030.68 177.165 994.442 149.55 1109.97 123.52C1225.5 97.4896 1261.73 125.105 1377.29 99.0672C1492.85 73.0296 1456.59 45.4219 1572.12 19.3917" stroke="url(#paint36_linear_361_729)" stroke-opacity="0.25" stroke-width="7.19421" stroke-miterlimit="10"/>
<g filter="url(#filter0_f_361_729)">
<ellipse cx="1163" cy="61" rx="520" ry="257" fill="#151315" fill-opacity="0.9"/>
<path d="M1163 -195.5C1306.53 -195.5 1436.45 -166.745 1530.47 -120.278C1624.52 -73.7957 1682.5 -9.67412 1682.5 61C1682.5 131.674 1624.52 195.796 1530.47 242.278C1436.45 288.745 1306.53 317.5 1163 317.5C1019.47 317.5 889.545 288.745 795.526 242.278C701.476 195.796 643.5 131.674 643.5 61C643.5 -9.67412 701.476 -73.7957 795.526 -120.278C889.545 -166.745 1019.47 -195.5 1163 -195.5Z" stroke="url(#paint37_linear_361_729)" stroke-opacity="0.25"/>
</g>
</g>
<rect x="0.5" y="0.5" width="1445" height="159" rx="20.26" stroke="#FFAE7E" stroke-opacity="0.5"/>
<defs>
<filter id="filter0_f_361_729" x="543" y="-296" width="1240" height="714" filterUnits="userSpaceOnUse" color-interpolation-filters="sRGB">
<feFlood flood-opacity="0" result="BackgroundImageFix"/>
<feBlend mode="normal" in="SourceGraphic" in2="BackgroundImageFix" result="shape"/>
<feGaussianBlur stdDeviation="50" result="effect1_foregroundBlur_361_729"/>
</filter>
<linearGradient id="paint0_linear_361_729" x1="607.598" y1="-31.2334" x2="615.254" y2="2.74809" gradientUnits="userSpaceOnUse">
<stop stop-color="#ADADAD"/>
<stop offset="1" stop-color="#666666"/>
</linearGradient>
<linearGradient id="paint1_linear_361_729" x1="462.882" y1="-141.526" x2="470.539" y2="-107.545" gradientUnits="userSpaceOnUse">
<stop stop-color="#ADADAD"/>
<stop offset="1" stop-color="#666666"/>
</linearGradient>
<linearGradient id="paint2_linear_361_729" x1="752.313" y1="79.0593" x2="759.985" y2="113.11" gradientUnits="userSpaceOnUse">
<stop stop-color="#ADADAD"/>
<stop offset="1" stop-color="#666666"/>
</linearGradient>
<linearGradient id="paint3_linear_361_729" x1="951.342" y1="230.747" x2="958.999" y2="264.729" gradientUnits="userSpaceOnUse">
<stop stop-color="#ADADAD"/>
<stop offset="1" stop-color="#666666"/>
</linearGradient>
<linearGradient id="paint4_linear_361_729" x1="679.992" y1="23.9409" x2="687.649" y2="57.9224" gradientUnits="userSpaceOnUse">
<stop stop-color="#ADADAD"/>
<stop offset="1" stop-color="#666666"/>
</linearGradient>
<linearGradient id="paint5_linear_361_729" x1="535.277" y1="-86.3521" x2="542.933" y2="-52.3706" gradientUnits="userSpaceOnUse">
<stop stop-color="#ADADAD"/>
<stop offset="1" stop-color="#666666"/>
</linearGradient>
<linearGradient id="paint6_linear_361_729" x1="824.707" y1="134.234" x2="832.364" y2="168.215" gradientUnits="userSpaceOnUse">
<stop stop-color="#ADADAD"/>
<stop offset="1" stop-color="#666666"/>
</linearGradient>
<linearGradient id="paint7_linear_361_729" x1="1023.66" y1="285.865" x2="1031.33" y2="319.916" gradientUnits="userSpaceOnUse">
<stop stop-color="#ADADAD"/>
<stop offset="1" stop-color="#666666"/>
</linearGradient>
<linearGradient id="paint8_linear_361_729" x1="643.758" y1="-3.67436" x2="651.43" y2="30.3762" gradientUnits="userSpaceOnUse">
<stop stop-color="#ADADAD"/>
<stop offset="1" stop-color="#666666"/>
</linearGradient>
<linearGradient id="paint9_linear_361_729" x1="499.043" y1="-113.967" x2="506.715" y2="-79.9165" gradientUnits="userSpaceOnUse">
<stop stop-color="#ADADAD"/>
<stop offset="1" stop-color="#666666"/>
</linearGradient>
<linearGradient id="paint10_linear_361_729" x1="788.546" y1="106.674" x2="796.203" y2="140.656" gradientUnits="userSpaceOnUse">
<stop stop-color="#ADADAD"/>
<stop offset="1" stop-color="#666666"/>
</linearGradient>
<linearGradient id="paint11_linear_361_729" x1="987.502" y1="258.306" x2="995.159" y2="292.288" gradientUnits="userSpaceOnUse">
<stop stop-color="#ADADAD"/>
<stop offset="1" stop-color="#666666"/>
</linearGradient>
<linearGradient id="paint12_linear_361_729" x1="426.722" y1="-169.086" x2="434.379" y2="-135.104" gradientUnits="userSpaceOnUse">
<stop stop-color="#ADADAD"/>
<stop offset="1" stop-color="#666666"/>
</linearGradient>
<linearGradient id="paint13_linear_361_729" x1="716.153" y1="51.5" x2="723.809" y2="85.4815" gradientUnits="userSpaceOnUse">
<stop stop-color="#ADADAD"/>
<stop offset="1" stop-color="#666666"/>
</linearGradient>
<linearGradient id="paint14_linear_361_729" x1="915.182" y1="203.188" x2="922.838" y2="237.169" gradientUnits="userSpaceOnUse">
<stop stop-color="#ADADAD"/>
<stop offset="1" stop-color="#666666"/>
</linearGradient>
<linearGradient id="paint15_linear_361_729" x1="571.437" y1="-58.7928" x2="579.094" y2="-24.8112" gradientUnits="userSpaceOnUse">
<stop stop-color="#ADADAD"/>
<stop offset="1" stop-color="#666666"/>
</linearGradient>
<linearGradient id="paint16_linear_361_729" x1="860.867" y1="161.793" x2="868.524" y2="195.774" gradientUnits="userSpaceOnUse">
<stop stop-color="#ADADAD"/>
<stop offset="1" stop-color="#666666"/>
</linearGradient>
<linearGradient id="paint17_linear_361_729" x1="1059.9" y1="313.48" x2="1067.55" y2="347.462" gradientUnits="userSpaceOnUse">
<stop stop-color="#ADADAD"/>
<stop offset="1" stop-color="#666666"/>
</linearGradient>
<linearGradient id="paint18_linear_361_729" x1="625.678" y1="-17.4541" x2="633.35" y2="16.5965" gradientUnits="userSpaceOnUse">
<stop stop-color="#ADADAD"/>
<stop offset="1" stop-color="#666666"/>
</linearGradient>
<linearGradient id="paint19_linear_361_729" x1="480.962" y1="-127.747" x2="488.619" y2="-93.7653" gradientUnits="userSpaceOnUse">
<stop stop-color="#ADADAD"/>
<stop offset="1" stop-color="#666666"/>
</linearGradient>
<linearGradient id="paint20_linear_361_729" x1="770.393" y1="92.8388" x2="778.065" y2="126.889" gradientUnits="userSpaceOnUse">
<stop stop-color="#ADADAD"/>
<stop offset="1" stop-color="#666666"/>
</linearGradient>
<linearGradient id="paint21_linear_361_729" x1="969.422" y1="244.527" x2="977.079" y2="278.508" gradientUnits="userSpaceOnUse">
<stop stop-color="#ADADAD"/>
<stop offset="1" stop-color="#666666"/>
</linearGradient>
<linearGradient id="paint22_linear_361_729" x1="408.642" y1="-182.865" x2="416.299" y2="-148.884" gradientUnits="userSpaceOnUse">
<stop stop-color="#ADADAD"/>
<stop offset="1" stop-color="#666666"/>
</linearGradient>
<linearGradient id="paint23_linear_361_729" x1="698.072" y1="37.7204" x2="705.729" y2="71.702" gradientUnits="userSpaceOnUse">
<stop stop-color="#ADADAD"/>
<stop offset="1" stop-color="#666666"/>
</linearGradient>
<linearGradient id="paint24_linear_361_729" x1="897.028" y1="189.352" x2="904.7" y2="223.403" gradientUnits="userSpaceOnUse">
<stop stop-color="#ADADAD"/>
<stop offset="1" stop-color="#666666"/>
</linearGradient>
<linearGradient id="paint25_linear_361_729" x1="553.357" y1="-72.5723" x2="561.014" y2="-38.5908" gradientUnits="userSpaceOnUse">
<stop stop-color="#ADADAD"/>
<stop offset="1" stop-color="#666666"/>
</linearGradient>
<linearGradient id="paint26_linear_361_729" x1="842.787" y1="148.013" x2="850.444" y2="181.995" gradientUnits="userSpaceOnUse">
<stop stop-color="#ADADAD"/>
<stop offset="1" stop-color="#666666"/>
</linearGradient>
<linearGradient id="paint27_linear_361_729" x1="1041.82" y1="299.701" x2="1049.47" y2="333.683" gradientUnits="userSpaceOnUse">
<stop stop-color="#ADADAD"/>
<stop offset="1" stop-color="#666666"/>
</linearGradient>
<linearGradient id="paint28_linear_361_729" x1="661.912" y1="10.1613" x2="669.569" y2="44.1429" gradientUnits="userSpaceOnUse">
<stop stop-color="#ADADAD"/>
<stop offset="1" stop-color="#666666"/>
</linearGradient>
<linearGradient id="paint29_linear_361_729" x1="517.123" y1="-100.188" x2="524.795" y2="-66.1369" gradientUnits="userSpaceOnUse">
<stop stop-color="#ADADAD"/>
<stop offset="1" stop-color="#666666"/>
</linearGradient>
<linearGradient id="paint30_linear_361_729" x1="806.627" y1="120.454" x2="814.283" y2="154.436" gradientUnits="userSpaceOnUse">
<stop stop-color="#ADADAD"/>
<stop offset="1" stop-color="#666666"/>
</linearGradient>
<linearGradient id="paint31_linear_361_729" x1="1005.58" y1="272.086" x2="1013.25" y2="306.136" gradientUnits="userSpaceOnUse">
<stop stop-color="#ADADAD"/>
<stop offset="1" stop-color="#666666"/>
</linearGradient>
<linearGradient id="paint32_linear_361_729" x1="444.803" y1="-155.306" x2="452.459" y2="-121.324" gradientUnits="userSpaceOnUse">
<stop stop-color="#ADADAD"/>
<stop offset="1" stop-color="#666666"/>
</linearGradient>
<linearGradient id="paint33_linear_361_729" x1="734.232" y1="65.2797" x2="741.888" y2="99.2613" gradientUnits="userSpaceOnUse">
<stop stop-color="#ADADAD"/>
<stop offset="1" stop-color="#666666"/>
</linearGradient>
<linearGradient id="paint34_linear_361_729" x1="933.261" y1="216.967" x2="940.918" y2="250.949" gradientUnits="userSpaceOnUse">
<stop stop-color="#ADADAD"/>
<stop offset="1" stop-color="#666666"/>
</linearGradient>
<linearGradient id="paint35_linear_361_729" x1="589.517" y1="-45.0132" x2="597.174" y2="-11.0317" gradientUnits="userSpaceOnUse">
<stop stop-color="#ADADAD"/>
<stop offset="1" stop-color="#666666"/>
</linearGradient>
<linearGradient id="paint36_linear_361_729" x1="878.948" y1="175.572" x2="886.62" y2="209.623" gradientUnits="userSpaceOnUse">
<stop stop-color="#ADADAD"/>
<stop offset="1" stop-color="#666666"/>
</linearGradient>
<linearGradient id="paint37_linear_361_729" x1="1163" y1="-196" x2="1163" y2="318" gradientUnits="userSpaceOnUse">
<stop stop-color="#FF5F00"/>
<stop offset="1" stop-color="#FF5F00"/>
</linearGradient>
<clipPath id="clip0_361_729">
<rect width="1446" height="160" rx="20.76" fill="white"/>
</clipPath>
</defs>
</svg>
