<svg width="810" height="200" viewBox="0 0 810 200" fill="none" xmlns="http://www.w3.org/2000/svg">
<g clip-path="url(#clip0_788_1843)">
<rect width="810" height="200" rx="20.76" fill="black" fill-opacity="0.5"/>
<path d="M-47.9333 156.184C16.7815 123.646 37.0373 158.095 101.752 125.558C166.467 93.0201 146.211 58.5711 210.907 26.0428C275.603 -6.48544 295.878 27.9542 360.593 -4.58344C425.308 -37.1211 405.052 -71.5701 469.767 -104.108C534.481 -136.645 554.737 -102.196 619.471 -134.743C684.204 -167.29 663.93 -201.73 728.644 -234.268" stroke="url(#paint0_linear_788_1843)" stroke-opacity="0.25" stroke-width="7.19421" stroke-miterlimit="10"/>
<path d="M-128.998 18.3179C-64.2831 -14.2198 -44.0273 20.2292 20.6875 -12.3084C85.4023 -44.8461 65.1465 -79.2951 129.843 -111.823C194.539 -144.352 214.813 -109.912 279.528 -142.45C344.243 -174.987 323.987 -209.436 388.702 -241.974C453.417 -274.512 473.673 -240.063 538.406 -272.61C603.139 -305.157 582.865 -339.596 647.58 -372.134" stroke="url(#paint1_linear_788_1843)" stroke-opacity="0.25" stroke-width="7.19421" stroke-miterlimit="10"/>
<path d="M33.1312 294.05C97.846 261.512 118.143 296.031 182.858 263.494C247.573 230.956 227.276 196.437 291.972 163.909C356.668 131.381 376.984 165.89 441.698 133.353C506.413 100.815 486.116 66.2959 550.831 33.7582C615.546 1.22058 635.843 35.7396 700.576 3.19259C765.31 -29.3544 744.994 -63.8641 809.709 -96.4017" stroke="url(#paint2_linear_788_1843)" stroke-opacity="0.25" stroke-width="7.19421" stroke-miterlimit="10"/>
<path d="M144.621 483.66C209.335 451.122 229.591 485.571 294.306 453.033C359.021 420.496 338.765 386.047 403.461 353.518C468.157 320.99 488.432 355.43 553.147 322.892C617.862 290.354 597.606 255.905 662.32 223.368C727.035 190.83 747.291 225.279 812.025 192.732C876.758 160.185 856.484 125.746 921.198 93.2079" stroke="url(#paint3_linear_788_1843)" stroke-opacity="0.25" stroke-width="7.19421" stroke-miterlimit="10"/>
<path d="M-7.38049 225.152C57.3343 192.614 77.5901 227.063 142.305 194.526C207.02 161.988 186.764 127.539 251.46 95.0106C316.156 62.4823 336.431 96.922 401.146 64.3843C465.86 31.8467 445.605 -2.60231 510.319 -35.14C575.034 -67.6776 595.29 -33.2286 660.023 -65.7756C724.757 -98.3226 704.482 -132.762 769.197 -165.3" stroke="url(#paint4_linear_788_1843)" stroke-opacity="0.25" stroke-width="7.19421" stroke-miterlimit="10"/>
<path d="M-88.4451 87.2859C-23.7303 54.7482 -3.47443 89.1972 61.2404 56.6596C125.955 24.122 105.699 -10.3271 170.396 -42.8553C235.092 -75.3836 255.366 -40.944 320.081 -73.4816C384.796 -106.019 364.54 -140.468 429.255 -173.006C493.97 -205.544 514.225 -171.095 578.959 -203.642C643.692 -236.189 623.418 -270.628 688.133 -303.166" stroke="url(#paint5_linear_788_1843)" stroke-opacity="0.25" stroke-width="7.19421" stroke-miterlimit="10"/>
<path d="M73.684 363.018C138.399 330.48 158.655 364.929 223.369 332.392C288.084 299.854 267.828 265.405 332.525 232.877C397.221 200.349 417.495 234.788 482.21 202.251C546.925 169.713 526.669 135.264 591.384 102.726C656.099 70.1886 676.354 104.638 741.088 72.0906C805.821 39.5436 785.547 5.10393 850.262 -27.4337" stroke="url(#paint6_linear_788_1843)" stroke-opacity="0.25" stroke-width="7.19421" stroke-miterlimit="10"/>
<path d="M185.132 552.558C249.847 520.02 270.144 554.539 334.859 522.001C399.574 489.464 379.277 454.945 443.973 422.416C508.669 389.888 528.985 424.398 593.699 391.86C658.414 359.322 638.117 324.803 702.832 292.266C767.547 259.728 787.844 294.247 852.577 261.7C917.311 229.153 896.995 194.643 961.71 162.106" stroke="url(#paint7_linear_788_1843)" stroke-opacity="0.25" stroke-width="7.19421" stroke-miterlimit="10"/>
<path d="M-27.6775 190.633C37.0373 158.095 57.3343 192.614 122.049 160.077C186.764 127.539 166.467 93.0199 231.163 60.4916C295.859 27.9633 316.175 62.473 380.89 29.9353C445.605 -2.60234 425.308 -37.1214 490.022 -69.659C554.737 -102.197 575.034 -67.6776 639.768 -100.225C704.501 -132.772 684.185 -167.281 748.9 -199.819" stroke="url(#paint8_linear_788_1843)" stroke-opacity="0.25" stroke-width="7.19421" stroke-miterlimit="10"/>
<path d="M-108.742 52.7668C-44.027 20.2292 -23.73 54.7482 40.9848 22.2106C105.7 -10.3271 85.4026 -44.8461 150.099 -77.3744C214.795 -109.903 235.111 -75.393 299.825 -107.931C364.54 -140.468 344.243 -174.987 408.958 -207.525C473.673 -240.063 493.97 -205.544 558.703 -238.091C623.437 -270.638 603.121 -305.147 667.836 -337.685" stroke="url(#paint9_linear_788_1843)" stroke-opacity="0.25" stroke-width="7.19421" stroke-miterlimit="10"/>
<path d="M53.428 328.569C118.143 296.031 138.399 330.48 203.113 297.943C267.828 265.405 247.572 230.956 312.269 198.428C376.965 165.899 397.239 200.339 461.954 167.801C526.669 135.264 506.413 100.815 571.128 68.277C635.843 35.7394 656.099 70.1884 720.832 37.6414C785.565 5.09436 765.291 -29.3453 830.006 -61.8829" stroke="url(#paint10_linear_788_1843)" stroke-opacity="0.25" stroke-width="7.19421" stroke-miterlimit="10"/>
<path d="M164.876 518.108C229.591 485.571 249.847 520.02 314.562 487.482C379.277 454.944 359.021 420.495 423.717 387.967C488.413 355.439 508.688 389.879 573.402 357.341C638.117 324.803 617.861 290.354 682.576 257.817C747.291 225.279 767.547 259.728 832.28 227.181C897.014 194.634 876.739 160.194 941.454 127.657" stroke="url(#paint11_linear_788_1843)" stroke-opacity="0.25" stroke-width="7.19421" stroke-miterlimit="10"/>
<path d="M-149.253 -16.1311C-84.5386 -48.6688 -64.2828 -14.2197 0.432031 -46.7574C65.1468 -79.295 44.891 -113.744 109.587 -146.272C174.283 -178.801 194.558 -144.361 259.273 -176.899C323.987 -209.436 303.732 -243.885 368.446 -276.423C433.161 -308.961 453.417 -274.512 518.151 -307.059C582.884 -339.606 562.61 -374.045 627.324 -406.583" stroke="url(#paint12_linear_788_1843)" stroke-opacity="0.25" stroke-width="7.19421" stroke-miterlimit="10"/>
<path d="M12.8755 259.601C77.5903 227.063 97.8461 261.512 162.561 228.975C227.276 196.437 207.02 161.988 271.716 129.46C336.412 96.9316 356.687 131.371 421.402 98.8335C486.116 66.2959 465.861 31.8469 530.575 -0.690744C595.29 -33.2284 615.546 1.22061 680.279 -31.3264C745.013 -63.8734 724.738 -98.3131 789.453 -130.851" stroke="url(#paint13_linear_788_1843)" stroke-opacity="0.25" stroke-width="7.19421" stroke-miterlimit="10"/>
<path d="M124.365 449.21C189.079 416.673 209.335 451.122 274.05 418.584C338.765 386.047 318.509 351.597 383.205 319.069C447.901 286.541 468.176 320.981 532.891 288.443C597.606 255.905 577.35 221.456 642.065 188.919C706.779 156.381 727.035 190.83 791.769 158.283C856.502 125.736 836.228 91.2963 900.942 58.7587" stroke="url(#paint14_linear_788_1843)" stroke-opacity="0.25" stroke-width="7.19421" stroke-miterlimit="10"/>
<path d="M-68.1891 121.735C-3.47427 89.1972 16.7815 123.646 81.4964 91.1086C146.211 58.5709 125.955 24.1219 190.652 -8.40637C255.348 -40.9347 275.622 -6.49501 340.337 -39.0327C405.052 -71.5703 384.796 -106.019 449.511 -138.557C514.226 -171.095 534.481 -136.646 599.215 -169.193C663.948 -201.74 643.674 -236.179 708.389 -268.717" stroke="url(#paint15_linear_788_1843)" stroke-opacity="0.25" stroke-width="7.19421" stroke-miterlimit="10"/>
<path d="M93.9397 397.467C158.655 364.929 178.91 399.378 243.625 366.841C308.34 334.303 288.084 299.854 352.78 267.326C417.477 234.797 437.751 269.237 502.466 236.699C567.181 204.162 546.925 169.713 611.64 137.175C676.354 104.637 696.61 139.086 761.344 106.539C826.077 73.9923 805.803 39.5527 870.517 7.01501" stroke="url(#paint16_linear_788_1843)" stroke-opacity="0.25" stroke-width="7.19421" stroke-miterlimit="10"/>
<path d="M205.429 587.077C270.144 554.539 290.4 588.988 355.114 556.45C419.829 523.913 399.573 489.464 464.27 456.935C528.966 424.407 549.24 458.847 613.955 426.309C678.67 393.771 658.414 359.322 723.129 326.785C787.844 294.247 808.099 328.696 872.833 296.149C937.566 263.602 917.292 229.163 982.007 196.625" stroke="url(#paint17_linear_788_1843)" stroke-opacity="0.25" stroke-width="7.19421" stroke-miterlimit="10"/>
<path d="M-37.8055 173.408C26.9093 140.871 47.2063 175.39 111.921 142.852C176.636 110.314 156.339 75.7953 221.035 43.267C285.731 10.7387 306.047 45.2483 370.762 12.7107C435.477 -19.8269 415.18 -54.346 479.894 -86.8836C544.609 -119.421 564.906 -84.9022 629.64 -117.449C694.373 -149.996 674.057 -184.506 738.772 -217.044" stroke="url(#paint18_linear_788_1843)" stroke-opacity="0.25" stroke-width="7.19421" stroke-miterlimit="10"/>
<path d="M-118.87 35.5422C-54.1553 3.00459 -33.8995 37.4536 30.8153 4.91595C95.5301 -27.6217 75.2743 -62.0707 139.971 -94.599C204.667 -127.127 224.941 -92.6876 289.656 -125.225C354.371 -157.763 334.115 -192.212 398.83 -224.75C463.545 -257.287 483.8 -222.838 548.534 -255.385C613.267 -287.932 592.993 -322.372 657.708 -354.91" stroke="url(#paint19_linear_788_1843)" stroke-opacity="0.25" stroke-width="7.19421" stroke-miterlimit="10"/>
<path d="M43.2592 311.274C107.974 278.737 128.271 313.256 192.986 280.718C257.701 248.18 237.404 213.661 302.1 181.133C366.796 148.605 387.112 183.115 451.826 150.577C516.541 118.039 496.244 83.5202 560.959 50.9826C625.674 18.4449 645.971 52.964 710.704 20.417C775.438 -12.1301 755.122 -46.6397 819.837 -79.1774" stroke="url(#paint20_linear_788_1843)" stroke-opacity="0.25" stroke-width="7.19421" stroke-miterlimit="10"/>
<path d="M154.748 500.884C219.463 468.346 239.719 502.795 304.434 470.258C369.149 437.72 348.893 403.271 413.589 370.743C478.285 338.215 498.56 372.654 563.274 340.117C627.989 307.579 607.733 273.13 672.448 240.592C737.163 208.055 757.419 242.504 822.152 209.957C886.886 177.41 866.611 142.97 931.326 110.432" stroke="url(#paint21_linear_788_1843)" stroke-opacity="0.25" stroke-width="7.19421" stroke-miterlimit="10"/>
<path d="M-159.381 -33.3557C-94.6665 -65.8934 -74.4107 -31.4444 -9.6959 -63.982C55.0189 -96.5197 34.7631 -130.969 99.4593 -163.497C164.155 -196.025 184.43 -161.586 249.145 -194.123C313.86 -226.661 293.604 -261.11 358.319 -293.648C423.033 -326.185 443.289 -291.736 508.023 -324.283C572.756 -356.83 552.482 -391.27 617.196 -423.807" stroke="url(#paint22_linear_788_1843)" stroke-opacity="0.25" stroke-width="7.19421" stroke-miterlimit="10"/>
<path d="M2.7475 242.376C67.4623 209.839 87.7181 244.288 152.433 211.75C217.148 179.213 196.892 144.764 261.588 112.235C326.284 79.7069 346.559 114.147 411.274 81.6089C475.988 49.0713 455.733 14.6223 520.447 -17.9154C585.162 -50.453 605.418 -16.004 670.151 -48.551C734.885 -81.098 714.61 -115.538 779.325 -148.075" stroke="url(#paint23_linear_788_1843)" stroke-opacity="0.25" stroke-width="7.19421" stroke-miterlimit="10"/>
<path d="M114.196 431.916C178.91 399.378 199.207 433.897 263.922 401.36C328.637 368.822 308.34 334.303 373.036 301.775C437.732 269.246 458.048 303.756 522.763 271.219C587.478 238.681 567.181 204.162 631.895 171.624C696.61 139.087 716.907 173.606 781.641 141.059C846.374 108.512 826.059 74.0019 890.773 41.4642" stroke="url(#paint24_linear_788_1843)" stroke-opacity="0.25" stroke-width="7.19421" stroke-miterlimit="10"/>
<path d="M-78.3171 104.51C-13.6023 71.9728 6.6535 106.422 71.3683 73.8842C136.083 41.3466 115.827 6.89755 180.524 -25.6307C245.22 -58.159 265.494 -23.7194 330.209 -56.257C394.924 -88.7947 374.668 -123.244 439.383 -155.781C504.098 -188.319 524.353 -153.87 589.087 -186.417C653.82 -218.964 633.546 -253.404 698.261 -285.941" stroke="url(#paint25_linear_788_1843)" stroke-opacity="0.25" stroke-width="7.19421" stroke-miterlimit="10"/>
<path d="M83.8118 380.243C148.527 347.705 168.782 382.154 233.497 349.616C298.212 317.079 277.956 282.63 342.652 250.101C407.349 217.573 427.623 252.013 492.338 219.475C557.053 186.938 536.797 152.489 601.512 119.951C666.226 87.4132 686.482 121.862 751.216 89.3152C815.949 56.7682 795.675 22.3285 860.39 -10.2091" stroke="url(#paint26_linear_788_1843)" stroke-opacity="0.25" stroke-width="7.19421" stroke-miterlimit="10"/>
<path d="M195.301 569.852C260.016 537.315 280.272 571.764 344.987 539.226C409.702 506.688 389.446 472.239 454.142 439.711C518.838 407.183 539.113 441.622 603.827 409.085C668.542 376.547 648.286 342.098 713.001 309.56C777.716 277.023 797.972 311.472 862.705 278.925C927.439 246.378 907.164 211.938 971.879 179.401" stroke="url(#paint27_linear_788_1843)" stroke-opacity="0.25" stroke-width="7.19421" stroke-miterlimit="10"/>
<path d="M-17.5083 207.927C47.2065 175.39 67.4623 209.839 132.177 177.301C196.892 144.764 176.636 110.315 241.332 77.7863C306.029 45.258 326.303 79.6976 391.018 47.16C455.733 14.6223 435.477 -19.8267 500.192 -52.3643C564.906 -84.902 585.162 -50.453 649.896 -83C714.629 -115.547 694.355 -149.987 759.069 -182.524" stroke="url(#paint28_linear_788_1843)" stroke-opacity="0.25" stroke-width="7.19421" stroke-miterlimit="10"/>
<path d="M-98.614 69.9912C-33.8992 37.4536 -13.6022 71.9726 51.1126 39.4349C115.827 6.8973 95.5304 -27.6217 160.227 -60.15C224.923 -92.6783 245.238 -58.1686 309.953 -90.7063C374.668 -123.244 354.371 -157.763 419.086 -190.301C483.801 -222.838 504.098 -188.319 568.831 -220.866C633.565 -253.413 613.249 -287.923 677.964 -320.461" stroke="url(#paint29_linear_788_1843)" stroke-opacity="0.25" stroke-width="7.19421" stroke-miterlimit="10"/>
<path d="M63.556 345.793C128.271 313.256 148.527 347.705 213.241 315.167C277.956 282.63 257.7 248.181 322.397 215.652C387.093 183.124 407.367 217.564 472.082 185.026C536.797 152.488 516.541 118.039 581.256 85.5016C645.971 52.964 666.227 87.413 730.96 54.866C795.693 22.319 775.419 -12.1207 840.134 -44.6583" stroke="url(#paint30_linear_788_1843)" stroke-opacity="0.25" stroke-width="7.19421" stroke-miterlimit="10"/>
<path d="M175.004 535.333C239.719 502.795 260.016 537.314 324.731 504.777C389.446 472.239 369.149 437.72 433.845 405.192C498.541 372.663 518.857 407.173 583.571 374.636C648.286 342.098 627.989 307.579 692.704 275.041C757.419 242.504 777.716 277.023 842.449 244.476C907.183 211.929 886.867 177.419 951.582 144.881" stroke="url(#paint31_linear_788_1843)" stroke-opacity="0.25" stroke-width="7.19421" stroke-miterlimit="10"/>
<path d="M-139.126 1.09351C-74.4108 -31.4441 -54.155 3.00487 10.5598 -29.5328C75.2747 -62.0704 55.0188 -96.5194 119.715 -129.048C184.411 -161.576 204.686 -127.136 269.4 -159.674C334.115 -192.212 313.859 -226.661 378.574 -259.198C443.289 -291.736 463.545 -257.287 528.278 -289.834C593.012 -322.381 572.737 -356.821 637.452 -389.358" stroke="url(#paint32_linear_788_1843)" stroke-opacity="0.25" stroke-width="7.19421" stroke-miterlimit="10"/>
<path d="M23.0029 276.825C87.7177 244.288 107.974 278.737 172.688 246.199C237.403 213.662 217.147 179.212 281.844 146.684C346.54 114.156 366.814 148.596 431.529 116.058C496.244 83.5203 475.988 49.0713 540.703 16.5336C605.418 -16.004 625.673 18.445 690.407 -14.102C755.14 -46.6491 734.866 -81.0887 799.581 -113.626" stroke="url(#paint33_linear_788_1843)" stroke-opacity="0.25" stroke-width="7.19421" stroke-miterlimit="10"/>
<path d="M134.492 466.435C199.207 433.897 219.463 468.346 284.178 435.809C348.893 403.271 328.637 368.822 393.333 336.294C458.029 303.766 478.304 338.205 543.018 305.668C607.733 273.13 587.477 238.681 652.192 206.143C716.907 173.606 737.163 208.055 801.896 175.508C866.63 142.961 846.355 108.521 911.07 75.9833" stroke="url(#paint34_linear_788_1843)" stroke-opacity="0.25" stroke-width="7.19421" stroke-miterlimit="10"/>
<path d="M-58.0614 138.959C6.65341 106.422 26.9092 140.871 91.624 108.333C156.339 75.7955 136.083 41.3465 200.779 8.81824C265.475 -23.7101 285.75 10.7296 350.465 -21.8081C415.18 -54.3457 394.924 -88.7947 459.638 -121.332C524.353 -153.87 544.609 -119.421 609.343 -151.968C674.076 -184.515 653.802 -218.955 718.516 -251.492" stroke="url(#paint35_linear_788_1843)" stroke-opacity="0.25" stroke-width="7.19421" stroke-miterlimit="10"/>
<path d="M104.068 414.691C168.782 382.154 189.079 416.673 253.794 384.135C318.509 351.597 298.212 317.078 362.908 284.55C427.604 252.022 447.92 286.532 512.635 253.994C577.35 221.456 557.053 186.937 621.768 154.4C686.482 121.862 706.779 156.381 771.513 123.834C836.246 91.2869 815.931 56.7773 880.645 24.2396" stroke="url(#paint36_linear_788_1843)" stroke-opacity="0.25" stroke-width="7.19421" stroke-miterlimit="10"/>
<g filter="url(#filter0_f_788_1843)">
<ellipse cx="651.473" cy="76.25" rx="291.286" ry="321.25" fill="#151315" fill-opacity="0.9"/>
<path d="M651.473 -244.5C812.025 -244.5 942.259 -100.943 942.259 76.25C942.259 253.443 812.025 397 651.473 397C490.921 397 360.687 253.442 360.687 76.25C360.687 -100.942 490.921 -244.5 651.473 -244.5Z" stroke="url(#paint37_linear_788_1843)" stroke-opacity="0.25"/>
</g>
</g>
<rect x="0.91" y="0.91" width="808.18" height="198.18" rx="19.85" stroke="#FFAE7E" stroke-opacity="0.5" stroke-width="1.82"/>
<defs>
<filter id="filter0_f_788_1843" x="260.187" y="-345" width="782.573" height="842.5" filterUnits="userSpaceOnUse" color-interpolation-filters="sRGB">
<feFlood flood-opacity="0" result="BackgroundImageFix"/>
<feBlend mode="normal" in="SourceGraphic" in2="BackgroundImageFix" result="shape"/>
<feGaussianBlur stdDeviation="50" result="effect1_foregroundBlur_788_1843"/>
</filter>
<linearGradient id="paint0_linear_788_1843" x1="340.356" y1="-39.0418" x2="358.268" y2="-3.41475" gradientUnits="userSpaceOnUse">
<stop stop-color="#ADADAD"/>
<stop offset="1" stop-color="#666666"/>
</linearGradient>
<linearGradient id="paint1_linear_788_1843" x1="259.291" y1="-176.908" x2="277.204" y2="-141.281" gradientUnits="userSpaceOnUse">
<stop stop-color="#ADADAD"/>
<stop offset="1" stop-color="#666666"/>
</linearGradient>
<linearGradient id="paint2_linear_788_1843" x1="421.42" y1="98.8242" x2="439.369" y2="134.524" gradientUnits="userSpaceOnUse">
<stop stop-color="#ADADAD"/>
<stop offset="1" stop-color="#666666"/>
</linearGradient>
<linearGradient id="paint3_linear_788_1843" x1="532.909" y1="288.434" x2="550.822" y2="324.061" gradientUnits="userSpaceOnUse">
<stop stop-color="#ADADAD"/>
<stop offset="1" stop-color="#666666"/>
</linearGradient>
<linearGradient id="paint4_linear_788_1843" x1="380.908" y1="29.926" x2="398.821" y2="65.553" gradientUnits="userSpaceOnUse">
<stop stop-color="#ADADAD"/>
<stop offset="1" stop-color="#666666"/>
</linearGradient>
<linearGradient id="paint5_linear_788_1843" x1="299.844" y1="-107.94" x2="317.757" y2="-72.3129" gradientUnits="userSpaceOnUse">
<stop stop-color="#ADADAD"/>
<stop offset="1" stop-color="#666666"/>
</linearGradient>
<linearGradient id="paint6_linear_788_1843" x1="461.973" y1="167.792" x2="479.886" y2="203.419" gradientUnits="userSpaceOnUse">
<stop stop-color="#ADADAD"/>
<stop offset="1" stop-color="#666666"/>
</linearGradient>
<linearGradient id="paint7_linear_788_1843" x1="573.421" y1="357.332" x2="591.37" y2="393.031" gradientUnits="userSpaceOnUse">
<stop stop-color="#ADADAD"/>
<stop offset="1" stop-color="#666666"/>
</linearGradient>
<linearGradient id="paint8_linear_788_1843" x1="360.611" y1="-4.59308" x2="378.561" y2="31.1064" gradientUnits="userSpaceOnUse">
<stop stop-color="#ADADAD"/>
<stop offset="1" stop-color="#666666"/>
</linearGradient>
<linearGradient id="paint9_linear_788_1843" x1="279.547" y1="-142.459" x2="297.496" y2="-106.76" gradientUnits="userSpaceOnUse">
<stop stop-color="#ADADAD"/>
<stop offset="1" stop-color="#666666"/>
</linearGradient>
<linearGradient id="paint10_linear_788_1843" x1="441.717" y1="133.343" x2="459.63" y2="168.97" gradientUnits="userSpaceOnUse">
<stop stop-color="#ADADAD"/>
<stop offset="1" stop-color="#666666"/>
</linearGradient>
<linearGradient id="paint11_linear_788_1843" x1="553.165" y1="322.883" x2="571.078" y2="358.51" gradientUnits="userSpaceOnUse">
<stop stop-color="#ADADAD"/>
<stop offset="1" stop-color="#666666"/>
</linearGradient>
<linearGradient id="paint12_linear_788_1843" x1="239.035" y1="-211.357" x2="256.948" y2="-175.73" gradientUnits="userSpaceOnUse">
<stop stop-color="#ADADAD"/>
<stop offset="1" stop-color="#666666"/>
</linearGradient>
<linearGradient id="paint13_linear_788_1843" x1="401.164" y1="64.3752" x2="419.077" y2="100.002" gradientUnits="userSpaceOnUse">
<stop stop-color="#ADADAD"/>
<stop offset="1" stop-color="#666666"/>
</linearGradient>
<linearGradient id="paint14_linear_788_1843" x1="512.654" y1="253.985" x2="530.566" y2="289.612" gradientUnits="userSpaceOnUse">
<stop stop-color="#ADADAD"/>
<stop offset="1" stop-color="#666666"/>
</linearGradient>
<linearGradient id="paint15_linear_788_1843" x1="320.1" y1="-73.491" x2="338.013" y2="-37.864" gradientUnits="userSpaceOnUse">
<stop stop-color="#ADADAD"/>
<stop offset="1" stop-color="#666666"/>
</linearGradient>
<linearGradient id="paint16_linear_788_1843" x1="482.229" y1="202.241" x2="500.141" y2="237.868" gradientUnits="userSpaceOnUse">
<stop stop-color="#ADADAD"/>
<stop offset="1" stop-color="#666666"/>
</linearGradient>
<linearGradient id="paint17_linear_788_1843" x1="593.718" y1="391.851" x2="611.631" y2="427.478" gradientUnits="userSpaceOnUse">
<stop stop-color="#ADADAD"/>
<stop offset="1" stop-color="#666666"/>
</linearGradient>
<linearGradient id="paint18_linear_788_1843" x1="350.483" y1="-21.8177" x2="368.433" y2="13.8818" gradientUnits="userSpaceOnUse">
<stop stop-color="#ADADAD"/>
<stop offset="1" stop-color="#666666"/>
</linearGradient>
<linearGradient id="paint19_linear_788_1843" x1="269.419" y1="-159.684" x2="287.332" y2="-124.057" gradientUnits="userSpaceOnUse">
<stop stop-color="#ADADAD"/>
<stop offset="1" stop-color="#666666"/>
</linearGradient>
<linearGradient id="paint20_linear_788_1843" x1="431.548" y1="116.049" x2="449.497" y2="151.748" gradientUnits="userSpaceOnUse">
<stop stop-color="#ADADAD"/>
<stop offset="1" stop-color="#666666"/>
</linearGradient>
<linearGradient id="paint21_linear_788_1843" x1="543.037" y1="305.658" x2="560.95" y2="341.285" gradientUnits="userSpaceOnUse">
<stop stop-color="#ADADAD"/>
<stop offset="1" stop-color="#666666"/>
</linearGradient>
<linearGradient id="paint22_linear_788_1843" x1="228.908" y1="-228.582" x2="246.82" y2="-192.955" gradientUnits="userSpaceOnUse">
<stop stop-color="#ADADAD"/>
<stop offset="1" stop-color="#666666"/>
</linearGradient>
<linearGradient id="paint23_linear_788_1843" x1="391.036" y1="47.1506" x2="408.949" y2="82.7776" gradientUnits="userSpaceOnUse">
<stop stop-color="#ADADAD"/>
<stop offset="1" stop-color="#666666"/>
</linearGradient>
<linearGradient id="paint24_linear_788_1843" x1="502.485" y1="236.69" x2="520.434" y2="272.39" gradientUnits="userSpaceOnUse">
<stop stop-color="#ADADAD"/>
<stop offset="1" stop-color="#666666"/>
</linearGradient>
<linearGradient id="paint25_linear_788_1843" x1="309.972" y1="-90.7154" x2="327.885" y2="-55.0883" gradientUnits="userSpaceOnUse">
<stop stop-color="#ADADAD"/>
<stop offset="1" stop-color="#666666"/>
</linearGradient>
<linearGradient id="paint26_linear_788_1843" x1="472.101" y1="185.017" x2="490.013" y2="220.644" gradientUnits="userSpaceOnUse">
<stop stop-color="#ADADAD"/>
<stop offset="1" stop-color="#666666"/>
</linearGradient>
<linearGradient id="paint27_linear_788_1843" x1="583.59" y1="374.626" x2="601.503" y2="410.253" gradientUnits="userSpaceOnUse">
<stop stop-color="#ADADAD"/>
<stop offset="1" stop-color="#666666"/>
</linearGradient>
<linearGradient id="paint28_linear_788_1843" x1="370.781" y1="12.7016" x2="388.693" y2="48.3287" gradientUnits="userSpaceOnUse">
<stop stop-color="#ADADAD"/>
<stop offset="1" stop-color="#666666"/>
</linearGradient>
<linearGradient id="paint29_linear_788_1843" x1="289.675" y1="-125.235" x2="307.624" y2="-89.5352" gradientUnits="userSpaceOnUse">
<stop stop-color="#ADADAD"/>
<stop offset="1" stop-color="#666666"/>
</linearGradient>
<linearGradient id="paint30_linear_788_1843" x1="451.845" y1="150.568" x2="469.758" y2="186.195" gradientUnits="userSpaceOnUse">
<stop stop-color="#ADADAD"/>
<stop offset="1" stop-color="#666666"/>
</linearGradient>
<linearGradient id="paint31_linear_788_1843" x1="563.293" y1="340.107" x2="581.242" y2="375.807" gradientUnits="userSpaceOnUse">
<stop stop-color="#ADADAD"/>
<stop offset="1" stop-color="#666666"/>
</linearGradient>
<linearGradient id="paint32_linear_788_1843" x1="249.163" y1="-194.132" x2="267.076" y2="-158.505" gradientUnits="userSpaceOnUse">
<stop stop-color="#ADADAD"/>
<stop offset="1" stop-color="#666666"/>
</linearGradient>
<linearGradient id="paint33_linear_788_1843" x1="411.292" y1="81.5995" x2="429.205" y2="117.227" gradientUnits="userSpaceOnUse">
<stop stop-color="#ADADAD"/>
<stop offset="1" stop-color="#666666"/>
</linearGradient>
<linearGradient id="paint34_linear_788_1843" x1="522.781" y1="271.209" x2="540.694" y2="306.836" gradientUnits="userSpaceOnUse">
<stop stop-color="#ADADAD"/>
<stop offset="1" stop-color="#666666"/>
</linearGradient>
<linearGradient id="paint35_linear_788_1843" x1="330.227" y1="-56.2664" x2="348.14" y2="-20.6394" gradientUnits="userSpaceOnUse">
<stop stop-color="#ADADAD"/>
<stop offset="1" stop-color="#666666"/>
</linearGradient>
<linearGradient id="paint36_linear_788_1843" x1="492.357" y1="219.466" x2="510.306" y2="255.165" gradientUnits="userSpaceOnUse">
<stop stop-color="#ADADAD"/>
<stop offset="1" stop-color="#666666"/>
</linearGradient>
<linearGradient id="paint37_linear_788_1843" x1="651.473" y1="-245" x2="651.473" y2="397.5" gradientUnits="userSpaceOnUse">
<stop stop-color="#FF5F00"/>
<stop offset="1" stop-color="#FF5F00"/>
</linearGradient>
<clipPath id="clip0_788_1843">
<rect width="810" height="200" rx="20.76" fill="white"/>
</clipPath>
</defs>
</svg>
