<svg width="27" height="27" viewBox="0 0 27 27" fill="none" xmlns="http://www.w3.org/2000/svg">
<path d="M16.6401 25.2374H9.98408C3.96038 25.2374 1.38672 22.6637 1.38672 16.64V9.98402C1.38672 3.96032 3.96038 1.38666 9.98408 1.38666H16.6401C22.6638 1.38666 25.2375 3.96032 25.2375 9.98402V16.64C25.2375 22.6637 22.6638 25.2374 16.6401 25.2374ZM9.98408 3.05066C4.87004 3.05066 3.05072 4.86997 3.05072 9.98402V16.64C3.05072 21.7541 4.87004 23.5734 9.98408 23.5734H16.6401C21.7541 23.5734 23.5734 21.7541 23.5734 16.64V9.98402C23.5734 4.86997 21.7541 3.05066 16.6401 3.05066H9.98408Z" fill="white"/>
<path d="M13.3127 14.5098C13.1685 14.5098 13.0243 14.4765 12.8912 14.3989L7.0117 11.0043C6.61234 10.7713 6.4792 10.261 6.71216 9.87277C6.94512 9.47341 7.45544 9.34029 7.84371 9.57325L13.3016 12.7349L18.7263 9.59544C19.1256 9.36248 19.6359 9.50669 19.8578 9.89496C20.0797 10.2832 19.9466 10.8046 19.5583 11.0265L13.7232 14.3989C13.6012 14.4654 13.4569 14.5098 13.3127 14.5098Z" fill="white"/>
<path d="M13.312 20.545C12.8572 20.545 12.48 20.1679 12.48 19.713V13.6783C12.48 13.2234 12.8572 12.8463 13.312 12.8463C13.7668 12.8463 14.144 13.2234 14.144 13.6783V19.713C14.144 20.1679 13.7668 20.545 13.312 20.545Z" fill="white"/>
<path d="M13.3123 20.7998C12.6689 20.7998 12.0367 20.6556 11.5264 20.3783L7.97647 18.4037C6.91151 17.8157 6.09058 16.4069 6.09058 15.1866V11.426C6.09058 10.2168 6.9226 8.80792 7.97647 8.20888L11.5264 6.23426C12.547 5.6685 14.0778 5.6685 15.0984 6.23426L18.6482 8.20888C19.7132 8.79682 20.5342 10.2057 20.5342 11.426V15.1866C20.5342 16.3958 19.7021 17.8046 18.6482 18.4037L15.0984 20.3783C14.5881 20.6667 13.9557 20.7998 13.3123 20.7998ZM13.3123 7.48781C12.9462 7.48781 12.5913 7.55437 12.3361 7.69858L8.7863 9.6732C8.24272 9.97272 7.75458 10.8158 7.75458 11.426V15.1866C7.75458 15.8078 8.24272 16.6398 8.7863 16.9394L12.3361 18.914C12.8464 19.2024 13.7782 19.2024 14.2885 18.914L17.8384 16.9394C18.382 16.6398 18.8702 15.7967 18.8702 15.1866V11.426C18.8702 10.8047 18.382 9.97272 17.8384 9.6732L14.2885 7.69858C14.0334 7.55437 13.6784 7.48781 13.3123 7.48781Z" fill="white"/>
</svg>
