<svg width="24" height="26" viewBox="0 0 24 26" fill="none" xmlns="http://www.w3.org/2000/svg">
<path d="M12 15.1974C8.83 15.1974 6.25 12.6174 6.25 9.44736C6.25 6.27736 8.83 3.69736 12 3.69736C15.17 3.69736 17.75 6.27736 17.75 9.44736C17.75 12.6174 15.17 15.1974 12 15.1974ZM12 5.19736C9.66 5.19736 7.75 7.10736 7.75 9.44736C7.75 11.7874 9.66 13.6974 12 13.6974C14.34 13.6974 16.25 11.7874 16.25 9.44736C16.25 7.10736 14.34 5.19736 12 5.19736Z" fill="#DDDDDD"/>
<path d="M15.8201 25.1974C15.4401 25.1974 15.0801 25.0573 14.8201 24.7973C14.5101 24.4873 14.3701 24.0374 14.4401 23.5674L14.6301 22.2174C14.6801 21.8674 14.8901 21.4574 15.1401 21.1974L18.68 17.6574C20.1 16.2374 21.3501 17.0474 21.9601 17.6574C22.4801 18.1774 22.7501 18.7373 22.7501 19.2973C22.7501 19.8673 22.4901 20.3973 21.9601 20.9273L18.42 24.4674C18.17 24.7174 17.7501 24.9274 17.4001 24.9774L16.05 25.1673C15.97 25.1873 15.9001 25.1974 15.8201 25.1974ZM20.31 18.3673C20.13 18.3673 19.97 18.4874 19.74 18.7174L16.2001 22.2574C16.1701 22.2874 16.12 22.3873 16.12 22.4273L15.9401 23.6773L17.1901 23.4973C17.2301 23.4873 17.33 23.4374 17.36 23.4074L20.9001 19.8673C21.0601 19.7073 21.2501 19.4773 21.2501 19.2973C21.2501 19.1473 21.1301 18.9374 20.9001 18.7174C20.6601 18.4774 20.48 18.3673 20.31 18.3673Z" fill="#DDDDDD"/>
<path d="M20.9201 21.6673C20.8501 21.6673 20.7801 21.6574 20.7201 21.6374C19.4001 21.2674 18.3501 20.2174 17.9801 18.8974C17.8701 18.4974 18.1001 18.0874 18.5001 17.9774C18.9001 17.8674 19.3101 18.0973 19.4201 18.4973C19.6501 19.3173 20.3001 19.9674 21.1201 20.1974C21.5201 20.3074 21.7501 20.7273 21.6401 21.1173C21.5501 21.4473 21.2501 21.6673 20.9201 21.6673Z" fill="#DDDDDD"/>
<path d="M3.41016 25.1974C3.00016 25.1974 2.66016 24.8574 2.66016 24.4474C2.66016 20.1774 6.85018 16.6974 12.0002 16.6974C13.0902 16.6974 14.1702 16.8574 15.1802 17.1574C15.5802 17.2774 15.8002 17.6974 15.6802 18.0874C15.5602 18.4874 15.1402 18.7074 14.7502 18.5874C13.8702 18.3274 12.9502 18.1873 12.0002 18.1873C7.68018 18.1873 4.16016 20.9873 4.16016 24.4373C4.16016 24.8573 3.82016 25.1974 3.41016 25.1974Z" fill="#DDDDDD"/>
</svg>
