<svg width="27" height="27" viewBox="0 0 27 27" fill="none" xmlns="http://www.w3.org/2000/svg">
<path d="M19.6765 25.2335H8.46282C8.10789 25.2335 7.79732 25.0117 7.67531 24.6901C7.5533 24.3573 7.65313 23.9913 7.91933 23.7694C8.18553 23.5476 8.42954 23.2592 8.607 22.9487C8.96194 22.383 9.13942 21.7397 9.13942 21.0853C9.13942 19.0999 7.52003 17.4805 5.53462 17.4805C4.71384 17.4805 3.93743 17.7577 3.28302 18.279C3.039 18.4787 2.69515 18.512 2.40677 18.3789C2.11838 18.2458 1.94092 17.9463 1.94092 17.6247V12.7776C1.94092 10.0158 4.18143 7.77527 6.94325 7.77527H19.6765C22.4383 7.77527 24.6788 10.0158 24.6788 12.7776V14.3748C24.6788 14.8296 24.3017 15.2067 23.847 15.2067H21.6064C21.2182 15.2067 20.8633 15.3509 20.6082 15.6171L20.5971 15.6282C20.2865 15.9277 20.1423 16.338 20.1756 16.7595C20.2422 17.4915 20.9409 18.0794 21.7395 18.0794H23.847C24.3017 18.0794 24.6788 18.4565 24.6788 18.9113V20.2312C24.6788 22.993 22.4383 25.2335 19.6765 25.2335ZM10.182 23.5698H19.6765C21.5177 23.5698 23.0151 22.0724 23.0151 20.2312V19.7432H21.7395C20.0647 19.7432 18.645 18.5009 18.5119 16.9037C18.4231 15.9942 18.7559 15.0958 19.4214 14.4414C19.9981 13.8535 20.7746 13.5318 21.6064 13.5318H23.0151V12.7665C23.0151 10.9253 21.5177 9.42792 19.6765 9.42792H6.94325C5.10204 9.42792 3.60467 10.9253 3.60467 12.7665V16.1828C4.2258 15.9388 4.88021 15.8056 5.54571 15.8056C8.45173 15.8056 10.8143 18.1681 10.8143 21.0742C10.8143 21.9504 10.5924 22.8156 10.182 23.5698Z" fill="white"/>
<path d="M2.77279 14.5966C2.31803 14.5966 1.94092 14.2195 1.94092 13.7648V8.69593C1.94092 7.04328 2.98354 5.54584 4.52528 4.95798L13.3321 1.63048C14.2416 1.28664 15.2509 1.4087 16.0384 1.96328C16.837 2.51787 17.3029 3.41628 17.3029 4.38126V8.59608C17.3029 9.05084 16.9258 9.42795 16.471 9.42795C16.0162 9.42795 15.6391 9.05084 15.6391 8.59608V4.38126C15.6391 3.95978 15.4395 3.57155 15.0845 3.32754C14.7296 3.08352 14.3081 3.02806 13.9088 3.18334L5.10205 6.51084C4.20362 6.85468 3.59358 7.73096 3.59358 8.69593V13.7648C3.60467 14.2306 3.22755 14.5966 2.77279 14.5966Z" fill="white"/>
<path d="M21.7398 19.7431C20.065 19.7431 18.6453 18.5008 18.5122 16.9036C18.4234 15.983 18.7562 15.0846 19.4217 14.4302C19.9873 13.8534 20.7638 13.5318 21.5956 13.5318H23.9027C25.0008 13.5651 25.8438 14.4302 25.8438 15.495V17.7799C25.8438 18.8447 25.0008 19.7098 23.936 19.7431H21.7398ZM23.8805 15.1955H21.6067C21.2185 15.1955 20.8636 15.3397 20.6085 15.6059C20.2868 15.9165 20.1315 16.3379 20.1759 16.7594C20.2425 17.4915 20.9412 18.0793 21.7398 18.0793H23.9138C24.058 18.0793 24.1911 17.9463 24.1911 17.7799V15.495C24.1911 15.3286 24.058 15.2066 23.8805 15.1955Z" fill="white"/>
<path d="M15.5282 14.1419H7.764C7.30925 14.1419 6.93213 13.7648 6.93213 13.31C6.93213 12.8552 7.30925 12.4781 7.764 12.4781H15.5282C15.9829 12.4781 16.36 12.8552 16.36 13.31C16.36 13.7648 15.9829 14.1419 15.5282 14.1419Z" fill="white"/>
<path d="M5.54589 26.3427C3.70467 26.3427 1.97437 25.3666 1.04267 23.7805C0.543546 22.9819 0.277344 22.0391 0.277344 21.0742C0.277344 19.4548 0.998301 17.9574 2.25166 16.9591C3.18336 16.216 4.35908 15.8056 5.54589 15.8056C8.4519 15.8056 10.8144 18.1682 10.8144 21.0742C10.8144 22.0391 10.5482 22.9819 10.0491 23.7916C9.7829 24.2575 9.41688 24.679 8.99539 25.0339C8.07479 25.8769 6.84361 26.3427 5.54589 26.3427ZM5.54589 17.4694C4.7251 17.4694 3.94869 17.7466 3.29428 18.2679C2.44022 18.9445 1.94109 19.9761 1.94109 21.0742C1.94109 21.7286 2.11856 22.3719 2.4624 22.9265C3.11681 24.0356 4.27034 24.679 5.54589 24.679C6.42213 24.679 7.2651 24.3573 7.90842 23.7805C8.1968 23.5365 8.44082 23.2481 8.61828 22.9376C8.97322 22.3719 9.15068 21.7286 9.15068 21.0742C9.15068 19.0888 7.53129 17.4694 5.54589 17.4694Z" fill="white"/>
<path d="M4.91349 23.0042C4.70275 23.0042 4.49201 22.9266 4.32564 22.7602L3.22757 21.6621C2.90591 21.3405 2.90591 20.808 3.22757 20.4864C3.54923 20.1647 4.08163 20.1647 4.40329 20.4864L4.93568 21.0188L6.71035 19.3772C7.0431 19.0666 7.5755 19.0888 7.88607 19.4216C8.19664 19.7543 8.17446 20.2867 7.84171 20.5973L5.47918 22.7823C5.3128 22.9265 5.11314 23.0042 4.91349 23.0042Z" fill="white"/>
</svg>
