<svg width="47" height="47" viewBox="0 0 47 47" fill="none" xmlns="http://www.w3.org/2000/svg">
<rect x="4.94995" y="8.00818" width="38.25" height="38.25" rx="4.5" transform="rotate(-5.99997 4.94995 8.00818)" fill="black"/>
<rect y="3.9982" width="38.25" height="38.25" rx="4.5" transform="rotate(-5.99997 0 3.9982)" fill="white"/>
<g clip-path="url(#clip0_210_15693)">
<g clip-path="url(#clip1_210_15693)">
<path d="M11.1572 13.7014L18.5566 22.6159L13.1583 30.5832L15.0005 30.3896L19.4981 23.7521L24.2043 29.4223L24.5813 29.3827L29.8381 28.8301L22.252 19.6876L27.4698 11.9869L25.6276 12.1805L21.3107 18.5528L16.7924 13.1091L11.1572 13.7014ZM13.9385 14.8334L16.1865 14.5971L27.0582 27.698L24.8103 27.9343L13.9385 14.8334Z" fill="#FB6A14"/>
</g>
</g>
<defs>
<clipPath id="clip0_210_15693">
<rect width="17.9995" height="17.9985" fill="white" transform="translate(10.3088 13.3252) rotate(-5.99997)"/>
</clipPath>
<clipPath id="clip1_210_15693">
<rect width="18" height="18" fill="white" transform="translate(10.3088 13.3252) rotate(-5.99997)"/>
</clipPath>
</defs>
</svg>
